<svg width="50" height="50" viewBox="0 0 50 50" fill="none" xmlns="http://www.w3.org/2000/svg">
    <path d="M24.3164 0.644531C26.4453 0.644531 28.1836 2.38281 28.1836 4.51172C28.1836 6.64063 26.4453 8.3789 24.3164 8.3789C22.1875 8.3789 20.4492 6.64063 20.4492 4.51172C20.4492 2.38281 22.1875 0.644531 24.3164 0.644531ZM34.0039 27.1094H30.625H29.6484H19.0039H18.0273H14.6289H3.90625V29.9219H7.05078V49.3555H41.3867V29.9219H44.5312V27.1094H34.0039ZM18.0859 15.1563C18.0859 14.8633 18.2813 14.6875 18.5547 14.6875C18.8281 14.6875 19.0234 14.8828 19.0234 15.1563V25.9961H29.668V15.1563C29.668 14.8633 29.8633 14.6875 30.1367 14.6875C30.4297 14.6875 30.6055 14.8828 30.6055 15.1563V25.9961H34.0039V14.1797C34.0039 11.5039 31.8359 9.33594 29.1602 9.33594H28.1836L25.3516 13.7695L25.0195 10.4492L25.4883 9.33594H23.4375L23.9062 10.4492L23.5352 13.7891L20.6836 9.33594H19.5508C16.875 9.35547 14.707 11.5234 14.707 14.1797V25.9961H18.1055L18.0859 15.1563Z" fill="black" />
</svg>