<svg width="50" height="50" viewBox="0 0 50 50" fill="none" xmlns="http://www.w3.org/2000/svg">
    <path d="M7.47674 28.078H13.9849V22.0525H7.47674V28.078ZM25.6583 16.6807V28.0788H32.1664V16.6807H25.6583Z" fill="black" />
    <path d="M47.0777 3H2.92309C1.30742 3.00165 0.00165287 4.30824 0 5.92309V37.4631C0.00165287 39.0771 1.30824 40.3828 2.92309 40.3828H18.7361V44.2968H16.4642C15.7791 44.2968 15.2237 44.8522 15.2237 45.5365C15.2237 46.2199 15.7791 46.7753 16.4642 46.7753H34.1284C34.8135 46.7753 35.3688 46.2199 35.3688 45.5365C35.3688 44.8514 34.8135 44.2968 34.1284 44.2968H32.0623V40.3828H47.0769C48.6909 40.3828 49.9983 39.0771 49.9983 37.4631H50V5.92309C49.9992 4.30742 48.6934 3.00165 47.0777 3ZM29.583 44.2968H21.2162V40.3828H29.5822L29.583 44.2968ZM47.0777 37.9036H2.92309C2.67764 37.9036 2.48095 37.7052 2.4793 37.4631V34.6912H47.5199V37.4631H47.5215C47.5199 37.7044 47.3232 37.9036 47.0777 37.9036ZM47.5199 32.2111H2.4793V5.92309C2.48095 5.67764 2.67929 5.4793 2.92309 5.4793H47.0769C47.3207 5.4793 47.519 5.67764 47.5207 5.92309L47.5199 32.2111ZM43.8406 28.0781H42.4976V10.2065H33.5085V28.0781H24.3161L24.3145 10.2065H15.3278V28.0781H5.99577C5.31066 28.0781 4.75695 28.6335 4.75695 29.3186C4.75695 30.002 5.31066 30.5574 5.99577 30.5574H43.8406C44.5241 30.5574 45.0794 30.002 45.0794 29.3186C45.0794 28.6343 44.5232 28.0781 43.8406 28.0781ZM21.8368 28.0781H17.8071V12.685H21.8368V28.0781ZM40.0175 28.0781H35.9878V12.685H40.0175V28.0781Z" fill="black" />
</svg>