<svg width="50" height="50" viewBox="0 0 50 50" fill="none" xmlns="http://www.w3.org/2000/svg">
    <path d="M19.1336 36.53H14.5186L10.3029 44.6099H50L45.7844 36.53H41.5894L42.5149 39.3404H39.7025L35.5967 17.911C35.5967 17.911 35.1047 18.0428 34.3686 18.2314L34.3178 17.9762C34.2271 17.535 34.0598 17.1343 33.8607 16.7528C33.6605 16.372 33.4271 16.0125 33.1855 15.6776L33.1156 15.5809L33.0278 15.5047C32.4734 15.0147 31.4703 14.212 29.7659 13.1025L29.77 13.1053C27.9854 11.9388 25.9675 11.3138 24.2089 11.2719C20.4173 11.1937 16.2277 11.1078 15.1073 11.0853L14.0472 10.4032L14.6736 9.47891L8.1999 5L0 17.205L6.39893 21.6827L7.25791 20.416L9.44678 21.8946L12.6009 26.583C13.0668 27.2746 13.7015 27.8399 14.4474 28.2194L14.4549 28.2235C14.4563 28.2235 15.0168 28.5035 15.8045 28.9015C16.5908 29.2994 17.6029 29.8154 18.4955 30.2841L18.4969 30.2848C19.216 30.6607 20.0325 30.9873 20.8956 31.2756L20.9065 31.279L21.4555 31.4492L22.9759 39.3404H20.0687L19.1336 36.53ZM21.5583 29.2748C20.774 29.0127 20.0536 28.7211 19.4738 28.4172H19.4752C17.6762 27.4738 15.4435 26.3615 15.3988 26.3389C14.9803 26.1255 14.6133 25.7996 14.3498 25.407L10.9672 20.3776L8.44082 18.6712L12.8637 12.1488L14.4692 13.1809L14.767 13.1863C14.7697 13.187 16.0116 13.2124 17.808 13.2488C19.605 13.2858 21.955 13.3339 24.1657 13.3799C25.4439 13.3998 27.173 13.9137 28.6118 14.866L28.6558 14.8948L28.616 14.8688C30.1488 15.8678 31.0477 16.5786 31.5389 17.004C31.5993 17.0891 31.6569 17.1741 31.7118 17.2593L28.804 17.5028L25.2293 18.7969L25.0928 18.9066C23.9448 19.8281 23.2684 21.2113 23.245 22.6797V22.7462C23.2444 24.196 23.8804 25.5724 24.9857 26.511L25.2184 26.7079L25.2472 26.712C25.3337 26.782 25.4544 26.8808 25.6301 27.0283C26.0232 27.3583 26.6702 27.91 27.7241 28.8253C27.9177 28.9934 28.0274 29.145 28.0892 29.2706C28.1516 29.3969 28.1708 29.4978 28.1716 29.5965C28.1729 29.8023 28.0659 30.0576 27.7941 30.2901C27.5266 30.518 27.119 30.686 26.6497 30.6854C26.4604 30.6854 26.2613 30.6593 26.0527 30.5989L26.0041 30.5853L26.0569 30.6003C25.2418 30.3615 24.3828 30.1317 23.543 29.8889L21.5583 29.2748Z" fill="black" />
</svg>