<svg width="500" height="500" viewBox="0 0 500 500" fill="none" xmlns="http://www.w3.org/2000/svg">
    <path d="M41.42 297.72L49.23 293.21C49.23 293.21 53.88 273.88 52.03 256.5C49.42 232.05 33.33 222.85 27.21 224.96C21.09 227.07 19.32 234.18 29.45 248.74C35.42 257.33 42.76 275.22 41.42 297.72Z" fill="#9F1521" />
    <g opacity="0.65">
        <path d="M41.42 297.72L49.23 293.21C49.23 293.21 53.88 273.88 52.03 256.5C49.42 232.05 33.33 222.85 27.21 224.96C21.09 227.07 19.32 234.18 29.45 248.74C35.42 257.33 42.76 275.22 41.42 297.72Z" fill="white" />
    </g>
    <path d="M44.66 288.23H44.58C44.4395 288.203 44.3154 288.122 44.2348 288.004C44.1541 287.886 44.1237 287.74 44.15 287.6C48.43 265 40.56 239.7 30.8 229.16C30.7032 229.054 30.6525 228.914 30.6591 228.77C30.6656 228.627 30.7289 228.492 30.835 228.395C30.9411 228.298 31.0813 228.247 31.2248 228.254C31.3682 228.261 31.5032 228.324 31.6 228.43C41.53 239.16 49.6 264.91 45.21 287.79C45.1862 287.917 45.1175 288.031 45.0166 288.112C44.9157 288.193 44.7892 288.235 44.66 288.23Z" fill="white" />
    <path d="M21.75 309.07C20.59 309.67 17.48 307.01 16.62 306.37C15.1389 305.244 13.9717 303.756 13.23 302.05C12.3939 300.116 12.1841 297.969 12.63 295.91C12.8685 294.823 13.1826 293.754 13.57 292.71C13.92 291.71 14.27 290.65 14.63 289.61C15.0474 288.613 15.2583 287.541 15.25 286.46C15.08 284.3 13.25 282.7 11.58 281.31C9.73 279.77 7.83 277.78 7.97 275.19C8.21273 273.186 9.11301 271.318 10.53 269.88C11.84 268.38 13.38 267.06 14.59 265.47C15.5341 264.348 16.0637 262.936 16.09 261.47C16.016 260.575 15.7609 259.704 15.34 258.91C14.3689 257.253 13.5329 255.521 12.84 253.73C12.31 251.89 12.51 249.64 13.99 248.41C14.6471 247.974 15.3836 247.672 16.1574 247.521C16.9313 247.37 17.7273 247.373 18.5 247.53C19.9613 247.787 21.3497 248.356 22.57 249.2C26.57 251.69 28.67 256.68 32.94 258.66C34.6431 259.284 36.3831 259.801 38.15 260.21C39.0351 260.423 39.8664 260.817 40.5912 261.368C41.3159 261.919 41.9182 262.614 42.36 263.41C43.8 266.69 40.63 270.49 41.58 273.94C42.43 276.94 45.29 278.29 46.79 281.08C47.4035 282.318 47.6033 283.72 47.36 285.08C47.1014 287.371 46.4235 289.595 45.36 291.64C44.1663 293.741 42.8472 295.768 41.41 297.71C41.41 297.71 21.93 309 21.75 309.07Z" fill="#9F1521" />
    <g opacity="0.3">
        <path d="M21.75 309.07C20.59 309.67 17.48 307.01 16.62 306.37C15.1389 305.244 13.9717 303.756 13.23 302.05C12.3939 300.116 12.1841 297.969 12.63 295.91C12.8685 294.823 13.1826 293.754 13.57 292.71C13.92 291.71 14.27 290.65 14.63 289.61C15.0474 288.613 15.2583 287.541 15.25 286.46C15.08 284.3 13.25 282.7 11.58 281.31C9.73 279.77 7.83 277.78 7.97 275.19C8.21273 273.186 9.11301 271.318 10.53 269.88C11.84 268.38 13.38 267.06 14.59 265.47C15.5341 264.348 16.0637 262.936 16.09 261.47C16.016 260.575 15.7609 259.704 15.34 258.91C14.3689 257.253 13.5329 255.521 12.84 253.73C12.31 251.89 12.51 249.64 13.99 248.41C14.6471 247.974 15.3836 247.672 16.1574 247.521C16.9313 247.37 17.7273 247.373 18.5 247.53C19.9613 247.787 21.3497 248.356 22.57 249.2C26.57 251.69 28.67 256.68 32.94 258.66C34.6431 259.284 36.3831 259.801 38.15 260.21C39.0351 260.423 39.8664 260.817 40.5912 261.368C41.3159 261.919 41.9182 262.614 42.36 263.41C43.8 266.69 40.63 270.49 41.58 273.94C42.43 276.94 45.29 278.29 46.79 281.08C47.4035 282.318 47.6033 283.72 47.36 285.08C47.1014 287.371 46.4235 289.595 45.36 291.64C44.1663 293.741 42.8472 295.768 41.41 297.71C41.41 297.71 21.93 309 21.75 309.07Z" fill="white" />
    </g>
    <path d="M33.06 303.18C32.9237 303.167 32.798 303.101 32.71 302.996C32.622 302.892 32.5789 302.756 32.59 302.62C34.46 282.34 26.02 259.42 19.38 252.55C19.2859 252.452 19.2345 252.32 19.2374 252.184C19.2402 252.048 19.2969 251.919 19.395 251.825C19.4931 251.731 19.6246 251.679 19.7606 251.682C19.8966 251.685 20.0259 251.742 20.12 251.84C26.89 258.84 35.51 282.15 33.61 302.71C33.605 302.777 33.5867 302.842 33.5563 302.902C33.5259 302.962 33.4839 303.016 33.4328 303.059C33.3817 303.103 33.3224 303.136 33.2584 303.157C33.1945 303.178 33.127 303.185 33.06 303.18Z" fill="white" />
    <path d="M31.05 278.18H30.9C26.1519 276.597 21.2468 275.531 16.27 275C16.2033 274.995 16.1383 274.977 16.0789 274.946C16.0194 274.916 15.9667 274.874 15.9238 274.822C15.8809 274.771 15.8487 274.712 15.8292 274.648C15.8097 274.584 15.8031 274.517 15.81 274.45C15.8121 274.381 15.8288 274.313 15.8589 274.251C15.889 274.189 15.9319 274.134 15.9848 274.09C16.0376 274.045 16.0993 274.013 16.1657 273.994C16.2321 273.975 16.3017 273.97 16.37 273.98C21.4303 274.5 26.4194 275.566 31.25 277.16C31.361 277.206 31.4525 277.29 31.509 277.396C31.5655 277.502 31.5835 277.624 31.5599 277.742C31.5363 277.86 31.4726 277.966 31.3797 278.042C31.2867 278.119 31.1702 278.16 31.05 278.16V278.18Z" fill="white" />
    <path d="M458.58 297.72L450.77 293.21C450.77 293.21 446.12 273.88 447.97 256.5C450.58 232.05 466.67 222.85 472.79 224.96C478.91 227.07 480.68 234.18 470.55 248.74C464.58 257.33 457.24 275.22 458.58 297.72Z" fill="#9F1521" />
    <g opacity="0.65">
        <path d="M458.58 297.72L450.77 293.21C450.77 293.21 446.12 273.88 447.97 256.5C450.58 232.05 466.67 222.85 472.79 224.96C478.91 227.07 480.68 234.18 470.55 248.74C464.58 257.33 457.24 275.22 458.58 297.72Z" fill="white" />
    </g>
    <path d="M455.34 288.23H455.42C455.561 288.204 455.685 288.122 455.765 288.004C455.846 287.886 455.876 287.741 455.85 287.6C451.57 265.05 459.44 239.71 469.2 229.17C469.297 229.064 469.348 228.924 469.341 228.78C469.334 228.637 469.271 228.502 469.165 228.405C469.059 228.308 468.919 228.258 468.775 228.264C468.632 228.271 468.497 228.334 468.4 228.44C458.47 239.17 450.4 264.92 454.79 287.8C454.816 287.925 454.885 288.037 454.986 288.116C455.087 288.195 455.212 288.235 455.34 288.23Z" fill="white" />
    <path d="M478.25 309.07C479.41 309.67 482.52 307.01 483.38 306.37C484.861 305.244 486.028 303.756 486.77 302.05C487.606 300.116 487.816 297.969 487.37 295.91C487.131 294.823 486.817 293.754 486.43 292.71C486.08 291.71 485.73 290.65 485.37 289.61C484.953 288.613 484.742 287.541 484.75 286.46C484.92 284.3 486.75 282.7 488.42 281.31C490.27 279.77 492.17 277.78 492.03 275.19C491.787 273.186 490.887 271.318 489.47 269.88C488.16 268.38 486.62 267.06 485.41 265.47C484.466 264.348 483.936 262.936 483.91 261.47C483.984 260.575 484.239 259.704 484.66 258.91C485.631 257.253 486.467 255.521 487.16 253.73C487.69 251.89 487.49 249.64 486.01 248.41C485.353 247.974 484.616 247.672 483.843 247.521C483.069 247.37 482.273 247.373 481.5 247.53C480.039 247.787 478.65 248.356 477.43 249.2C473.43 251.69 471.33 256.68 467.06 258.66C465.357 259.284 463.617 259.801 461.85 260.21C460.965 260.423 460.134 260.817 459.409 261.368C458.684 261.919 458.082 262.614 457.64 263.41C456.2 266.69 459.37 270.49 458.42 273.94C457.57 276.94 454.71 278.29 453.21 281.08C452.596 282.318 452.397 283.72 452.64 285.08C452.899 287.371 453.577 289.595 454.64 291.64C455.834 293.741 457.153 295.768 458.59 297.71C458.59 297.71 478.07 309 478.25 309.07Z" fill="#9F1521" />
    <g opacity="0.3">
        <path d="M478.25 309.07C479.41 309.67 482.52 307.01 483.38 306.37C484.861 305.244 486.028 303.756 486.77 302.05C487.606 300.116 487.816 297.969 487.37 295.91C487.131 294.823 486.817 293.754 486.43 292.71C486.08 291.71 485.73 290.65 485.37 289.61C484.953 288.613 484.742 287.541 484.75 286.46C484.92 284.3 486.75 282.7 488.42 281.31C490.27 279.77 492.17 277.78 492.03 275.19C491.787 273.186 490.887 271.318 489.47 269.88C488.16 268.38 486.62 267.06 485.41 265.47C484.466 264.348 483.936 262.936 483.91 261.47C483.984 260.575 484.239 259.704 484.66 258.91C485.631 257.253 486.467 255.521 487.16 253.73C487.69 251.89 487.49 249.64 486.01 248.41C485.353 247.974 484.616 247.672 483.843 247.521C483.069 247.37 482.273 247.373 481.5 247.53C480.039 247.787 478.65 248.356 477.43 249.2C473.43 251.69 471.33 256.68 467.06 258.66C465.357 259.284 463.617 259.801 461.85 260.21C460.965 260.423 460.134 260.817 459.409 261.368C458.684 261.919 458.082 262.614 457.64 263.41C456.2 266.69 459.37 270.49 458.42 273.94C457.57 276.94 454.71 278.29 453.21 281.08C452.596 282.318 452.397 283.72 452.64 285.08C452.899 287.371 453.577 289.595 454.64 291.64C455.834 293.741 457.153 295.768 458.59 297.71C458.59 297.71 478.07 309 478.25 309.07Z" fill="white" />
    </g>
    <path d="M466.94 303.18C467.076 303.167 467.202 303.101 467.29 302.996C467.378 302.892 467.421 302.756 467.41 302.62C465.54 282.34 473.98 259.42 480.62 252.55C480.714 252.452 480.765 252.32 480.763 252.184C480.76 252.048 480.703 251.919 480.605 251.825C480.507 251.731 480.375 251.679 480.239 251.682C480.103 251.685 479.974 251.742 479.88 251.84C473.11 258.84 464.49 282.15 466.39 302.71C466.395 302.777 466.413 302.842 466.444 302.902C466.474 302.962 466.516 303.016 466.567 303.059C466.618 303.103 466.678 303.136 466.742 303.157C466.806 303.178 466.873 303.185 466.94 303.18Z" fill="white" />
    <path d="M469 278.18H469.15C473.882 276.6 478.77 275.534 483.73 275C483.797 274.995 483.862 274.977 483.921 274.946C483.981 274.916 484.033 274.874 484.076 274.822C484.119 274.771 484.151 274.712 484.171 274.648C484.19 274.584 484.197 274.517 484.19 274.45C484.188 274.381 484.171 274.313 484.141 274.251C484.111 274.189 484.068 274.134 484.015 274.09C483.962 274.045 483.901 274.013 483.834 273.994C483.768 273.975 483.698 273.97 483.63 273.98C478.57 274.5 473.581 275.566 468.75 277.16C468.639 277.206 468.548 277.29 468.491 277.396C468.435 277.502 468.417 277.624 468.44 277.742C468.464 277.86 468.527 277.966 468.62 278.042C468.713 278.119 468.83 278.16 468.95 278.16L469 278.18Z" fill="white" />
    <path d="M250 493.45C383.852 493.45 492.36 430.801 492.36 353.52C492.36 276.239 383.852 213.59 250 213.59C116.148 213.59 7.64001 276.239 7.64001 353.52C7.64001 430.801 116.148 493.45 250 493.45Z" fill="#F5F5F5" />
    <path d="M194.2 377.75L263.33 337.84L177.93 288.54L108.8 328.45L194.2 377.75Z" fill="#E0E0E0" />
    <path d="M293.26 464.72L357.59 427.58L293.26 390.44L228.94 427.58L293.26 464.72Z" fill="#E0E0E0" />
    <path d="M391.41 411.03C422.404 411.03 447.53 396.524 447.53 378.63C447.53 360.736 422.404 346.23 391.41 346.23C360.416 346.23 335.29 360.736 335.29 378.63C335.29 396.524 360.416 411.03 391.41 411.03Z" fill="#E0E0E0" />
    <path d="M99.54 416.78C138.62 416.78 170.3 398.491 170.3 375.93C170.3 353.369 138.62 335.08 99.54 335.08C60.4603 335.08 28.78 353.369 28.78 375.93C28.78 398.491 60.4603 416.78 99.54 416.78Z" fill="#E0E0E0" />
    <path d="M20.74 93.26C20.6207 93.2608 20.5033 93.2297 20.4 93.17C20.2931 93.1106 20.2042 93.0236 20.1426 92.918C20.081 92.8124 20.049 92.6922 20.05 92.57V69.72C20.049 69.5977 20.081 69.4775 20.1426 69.3719C20.2042 69.2663 20.2931 69.1793 20.4 69.12L40.06 57.77C40.1638 57.7063 40.2832 57.6726 40.405 57.6726C40.5268 57.6726 40.6462 57.7063 40.75 57.77C40.8543 57.8314 40.9407 57.9191 41.0003 58.0244C41.06 58.1297 41.0909 58.2489 41.09 58.37V81.23C41.0903 81.3507 41.0579 81.4693 40.9962 81.5731C40.9346 81.677 40.8461 81.7623 40.74 81.82L21.09 93.17C20.9827 93.2288 20.8624 93.2598 20.74 93.26ZM21.43 70.11V91.38L39.71 80.83V59.56L21.43 70.11Z" fill="#E0E0E0" />
    <path d="M20.74 132.11C20.6191 132.112 20.5004 132.077 20.4 132.01C20.2939 131.952 20.2054 131.867 20.1438 131.763C20.0822 131.659 20.0498 131.541 20.05 131.42V108.56C20.049 108.438 20.081 108.317 20.1426 108.212C20.2042 108.106 20.2931 108.019 20.4 107.96L40.06 96.61C40.1655 96.5513 40.2843 96.5205 40.405 96.5205C40.5257 96.5205 40.6445 96.5513 40.75 96.61C40.8543 96.6714 40.9407 96.7591 41.0003 96.8644C41.06 96.9698 41.0909 97.0889 41.09 97.21V120.07C41.0899 120.192 41.0575 120.312 40.996 120.417C40.9345 120.523 40.8462 120.61 40.74 120.67L21.09 132C20.9866 132.07 20.8649 132.108 20.74 132.11ZM21.43 109V130.26L39.71 119.71V98.4L21.43 109Z" fill="#E0E0E0" />
    <path d="M30.33 121.42L25.76 117.02L27.28 113.78L29.89 116.28L41.16 92.4399L43.13 94.3299L30.33 121.42Z" fill="#9F1521" />
    <path d="M20.74 171C20.6207 171.001 20.5033 170.97 20.4 170.91C20.2945 170.849 20.2067 170.762 20.1453 170.657C20.084 170.551 20.0511 170.432 20.05 170.31V147.4C20.0501 147.278 20.0825 147.158 20.144 147.053C20.2055 146.947 20.2938 146.86 20.4 146.8L40.06 135.45C40.164 135.398 40.2795 135.373 40.3958 135.377C40.5121 135.381 40.6254 135.415 40.7252 135.475C40.825 135.535 40.908 135.619 40.9666 135.719C41.0251 135.82 41.0573 135.934 41.06 136.05V158.91C41.061 159.032 41.029 159.153 40.9674 159.258C40.9058 159.364 40.8169 159.451 40.71 159.51L21.09 170.86C20.9876 170.937 20.8669 170.985 20.74 171ZM21.43 147.85V169.11L39.71 158.56V137.25L21.43 147.85Z" fill="#E0E0E0" />
    <path d="M478.91 93.17L459.26 81.82C459.154 81.7623 459.065 81.677 459.004 81.5731C458.942 81.4693 458.91 81.3507 458.91 81.23V58.37C458.909 58.2489 458.94 58.1297 459 58.0244C459.059 57.9191 459.146 57.8314 459.25 57.77C459.354 57.7063 459.473 57.6726 459.595 57.6726C459.717 57.6726 459.836 57.7063 459.94 57.77L479.6 69.12C479.707 69.1793 479.796 69.2663 479.857 69.3719C479.919 69.4775 479.951 69.5977 479.95 69.72V92.57C479.951 92.6922 479.919 92.8124 479.857 92.918C479.796 93.0236 479.707 93.1106 479.6 93.17C479.497 93.2297 479.379 93.2608 479.26 93.26C479.138 93.2598 479.017 93.2288 478.91 93.17ZM460.29 59.56V80.83L478.57 91.38V70.11L460.29 59.56Z" fill="#E0E0E0" />
    <path d="M478.91 132L459.26 120.66C459.154 120.6 459.065 120.513 459.004 120.407C458.943 120.302 458.91 120.182 458.91 120.06V97.21C458.909 97.0889 458.94 96.9698 459 96.8644C459.059 96.7591 459.146 96.6714 459.25 96.61C459.356 96.5513 459.474 96.5205 459.595 96.5205C459.716 96.5205 459.834 96.5513 459.94 96.61L479.6 108C479.707 108.059 479.796 108.146 479.857 108.252C479.919 108.357 479.951 108.478 479.95 108.6V131.46C479.95 131.581 479.918 131.699 479.856 131.803C479.795 131.907 479.706 131.992 479.6 132.05C479.5 132.117 479.381 132.152 479.26 132.15C479.131 132.137 479.009 132.084 478.91 132ZM460.29 98.4V119.67L478.57 130.22V109L460.29 98.4Z" fill="#E0E0E0" />
    <path d="M478.91 170.86L459.26 159.51C459.153 159.451 459.064 159.364 459.003 159.258C458.941 159.153 458.909 159.032 458.91 158.91V136.05C458.913 135.934 458.945 135.82 459.003 135.719C459.062 135.619 459.145 135.535 459.245 135.475C459.345 135.415 459.458 135.381 459.574 135.377C459.691 135.373 459.806 135.398 459.91 135.45L479.6 146.8C479.706 146.86 479.795 146.947 479.856 147.053C479.917 147.158 479.95 147.278 479.95 147.4V170.26C479.949 170.382 479.916 170.501 479.855 170.607C479.793 170.712 479.706 170.799 479.6 170.86C479.497 170.92 479.379 170.951 479.26 170.95C479.138 170.95 479.017 170.919 478.91 170.86ZM460.29 137.25V158.51L478.57 169.06V147.8L460.29 137.25Z" fill="#E0E0E0" />
    <path d="M468.5 158.87L463.93 149.19L466.04 147.17L469.09 153.67L479.77 143.37L481.3 146.56L468.5 158.87Z" fill="#9F1521" />
    <path d="M198.15 68L178.49 56.67C178.387 56.6102 178.301 56.5242 178.241 56.4206C178.181 56.317 178.15 56.1995 178.15 56.08V33.22C178.151 33.0982 178.184 32.9787 178.245 32.8735C178.307 32.7683 178.395 32.6809 178.5 32.62C178.606 32.5613 178.724 32.5305 178.845 32.5305C178.966 32.5305 179.085 32.5613 179.19 32.62L198.84 44C198.944 44.0614 199.031 44.1491 199.09 44.2544C199.15 44.3598 199.181 44.4789 199.18 44.6V67.42C199.181 67.541 199.15 67.6602 199.09 67.7655C199.031 67.8708 198.944 67.9586 198.84 68.02C198.734 68.0819 198.613 68.1163 198.49 68.12C198.368 68.1104 198.251 68.069 198.15 68ZM179.53 34.41V55.68L197.8 66.23V45L179.53 34.41Z" fill="#E0E0E0" />
    <path d="M188.35 57.3301L183.78 47.6501L185.89 45.6301L188.94 52.1301L199.62 41.8301L201.15 45.0201L188.35 57.3301Z" fill="#9F1521" />
    <path d="M228.63 85.6101L209 74.2601C208.894 74.2024 208.805 74.1171 208.744 74.0133C208.682 73.9094 208.65 73.7908 208.65 73.6701V50.8101C208.649 50.689 208.68 50.5699 208.74 50.4645C208.799 50.3592 208.886 50.2715 208.99 50.2101C209.096 50.1514 209.214 50.1206 209.335 50.1206C209.456 50.1206 209.574 50.1514 209.68 50.2101L229.34 61.5601C229.447 61.6194 229.536 61.7064 229.597 61.812C229.659 61.9176 229.691 62.0378 229.69 62.1601V85.0001C229.685 85.1825 229.611 85.3562 229.483 85.4861C229.355 85.6161 229.182 85.6925 229 85.7001C228.871 85.7028 228.743 85.6718 228.63 85.6101ZM210 52.0001V73.2701L228.28 83.8201V62.5501L210 52.0001Z" fill="#E0E0E0" />
    <path d="M259.08 103.2L239.43 91.8599C239.324 91.7998 239.236 91.7126 239.174 91.6072C239.113 91.5018 239.08 91.3819 239.08 91.2599V68.3999C239.079 68.2789 239.11 68.1597 239.17 68.0544C239.229 67.9491 239.316 67.8613 239.42 67.7999C239.526 67.7412 239.644 67.7104 239.765 67.7104C239.886 67.7104 240.005 67.7412 240.11 67.7999L259.77 79.1499C259.877 79.2092 259.966 79.2963 260.027 79.4018C260.089 79.5074 260.121 79.6277 260.12 79.7499V102.61C260.12 102.731 260.088 102.849 260.026 102.953C259.965 103.057 259.876 103.142 259.77 103.2C259.669 103.266 259.551 103.301 259.43 103.3C259.306 103.301 259.185 103.266 259.08 103.2ZM240.46 69.5899V90.8599L258.74 101.41V80.1499L240.46 69.5899Z" fill="#E0E0E0" />
    <path d="M181.23 161.39L126 324.95L122.05 327.23L177.29 163.67L181.23 161.39Z" fill="#455A64" />
    <path d="M122.05 327.23L120.1 326.11L175.33 162.54L177.29 163.67L122.05 327.23Z" fill="#263238" />
    <path d="M177.29 295.34L175.33 294.22L120.1 194.44L122.05 195.56L177.29 295.34Z" fill="#263238" />
    <path d="M126 193.28L181.23 293.06L177.29 295.34L122.05 195.56L126 193.28Z" fill="#455A64" />
    <path d="M195.06 233.16V237.72L254.24 203.55V199L195.06 233.16Z" fill="#455A64" />
    <path d="M195.06 233.16V237.72L120.1 194.44V189.88L195.06 233.16Z" fill="#37474F" />
    <path d="M254.24 203.55L199.01 367.12L195.06 369.39L250.3 205.83L254.24 203.55Z" fill="#455A64" />
    <path d="M195.06 369.39L193.11 368.27L248.34 204.7L250.3 205.83L195.06 369.39Z" fill="#263238" />
    <path d="M250.3 337.5L248.34 336.38L193.11 236.6L195.06 237.72L250.3 337.5Z" fill="#263238" />
    <path d="M199.01 235.44L254.24 335.22L250.3 337.5L195.06 237.72L199.01 235.44Z" fill="#455A64" />
    <path d="M179.28 73.71L163.48 82.83C150.287 90.4484 139.332 101.406 131.717 114.602C124.102 127.797 120.095 142.765 120.1 158V189.91L124.04 192.19L183.22 158V76L179.28 73.71Z" fill="#9F1521" />
    <path opacity="0.6" d="M179.28 73.71L163.48 82.83C150.287 90.4484 139.332 101.406 131.717 114.602C124.102 127.797 120.095 142.765 120.1 158V189.91L124.04 192.19L183.22 158V76L179.28 73.71Z" fill="white" />
    <path opacity="0.6" d="M126.51 125.25L183.22 158V76L179.28 73.72L163.48 82.84C146.786 92.4758 133.778 107.398 126.51 125.25Z" fill="white" />
    <path d="M124 192.16V160.25C124 145.019 128.01 130.056 135.627 116.866C143.244 103.676 154.198 92.7238 167.39 85.11L183.22 76V158L124 192.16Z" fill="#9F1521" />
    <path opacity="0.7" d="M124 192.16V160.25C124 145.019 128.01 130.056 135.627 116.866C143.244 103.676 154.198 92.7238 167.39 85.11L183.22 76V158L124 192.16Z" fill="white" />
    <path d="M191.12 226.33L124.04 187.6L183.22 153.44L250.3 192.16L191.12 226.33Z" fill="#9F1521" />
    <path opacity="0.8" d="M191.12 226.33L124.04 187.6L183.22 153.44L250.3 192.16L191.12 226.33Z" fill="white" />
    <path d="M191.12 230.89V226.33L124.04 187.6V192.16L191.12 230.89Z" fill="#9F1521" />
    <path opacity="0.6" d="M191.12 230.89V226.33L124.04 187.6V192.16L191.12 230.89Z" fill="white" />
    <path opacity="0.3" d="M146.3 189.47L173.92 205.42L209.43 184.92L181.81 168.97L146.3 189.47Z" fill="#9F1521" />
    <path d="M146.3 187.85L173.92 203.79L209.43 183.29L181.81 167.35L146.3 187.85Z" fill="#FAFAFA" />
    <path d="M193.64 188.09C193.6 188.099 193.559 188.099 193.52 188.09L189.58 185.81C189.542 185.789 189.511 185.759 189.489 185.722C189.468 185.685 189.456 185.643 189.456 185.6C189.456 185.557 189.468 185.515 189.489 185.478C189.511 185.441 189.542 185.411 189.58 185.39L193.52 183.11C193.557 183.09 193.598 183.079 193.64 183.079C193.682 183.079 193.723 183.09 193.76 183.11L197.76 185.39C197.797 185.411 197.829 185.441 197.851 185.478C197.872 185.515 197.884 185.557 197.884 185.6C197.884 185.643 197.872 185.685 197.851 185.722C197.829 185.759 197.797 185.789 197.76 185.81L193.76 188.09C193.721 188.1 193.679 188.1 193.64 188.09ZM190.18 185.57L193.64 187.57L197.1 185.57L193.64 183.57L190.18 185.57Z" fill="#9F1521" />
    <path d="M185.75 192.65H185.63L181.69 190.37C181.653 190.348 181.621 190.318 181.598 190.281C181.576 190.245 181.563 190.203 181.56 190.16C181.559 190.116 181.571 190.073 181.594 190.036C181.617 189.999 181.651 189.969 181.69 189.95L185.63 187.67C185.665 187.645 185.707 187.632 185.75 187.632C185.793 187.632 185.835 187.645 185.87 187.67L189.82 189.95C189.857 189.971 189.887 190.002 189.908 190.039C189.929 190.076 189.94 190.117 189.94 190.16C189.938 190.202 189.926 190.243 189.905 190.279C189.884 190.316 189.855 190.347 189.82 190.37L185.87 192.65C185.831 192.66 185.789 192.66 185.75 192.65ZM182.29 190.13L185.75 192.13L189.21 190.13L185.75 188.13L182.29 190.13Z" fill="#9F1521" />
    <path d="M177.86 197.2C177.82 197.209 177.779 197.209 177.74 197.2L173.74 194.92C173.703 194.899 173.673 194.868 173.652 194.831C173.631 194.794 173.62 194.753 173.62 194.71C173.622 194.668 173.634 194.627 173.655 194.591C173.676 194.554 173.705 194.523 173.74 194.5L177.74 192.22C177.777 192.2 177.818 192.189 177.86 192.189C177.902 192.189 177.943 192.2 177.98 192.22L181.98 194.5C182.015 194.523 182.044 194.554 182.065 194.591C182.086 194.627 182.098 194.668 182.1 194.71C182.1 194.753 182.089 194.794 182.068 194.831C182.047 194.868 182.017 194.899 181.98 194.92L177.98 197.2C177.941 197.21 177.899 197.21 177.86 197.2ZM174.4 194.68L177.86 196.68L181.32 194.68L177.86 192.68L174.4 194.68Z" fill="#9F1521" />
    <path d="M187.69 182.68C187.606 182.679 187.524 182.659 187.45 182.62L175.61 175.79C175.499 175.723 175.418 175.616 175.385 175.491C175.351 175.367 175.367 175.233 175.43 175.12C175.496 175.009 175.604 174.929 175.73 174.897C175.855 174.865 175.989 174.884 176.1 174.95L187.93 181.78C188.024 181.832 188.097 181.914 188.139 182.012C188.181 182.111 188.189 182.22 188.162 182.324C188.134 182.427 188.073 182.519 187.987 182.583C187.902 182.648 187.797 182.682 187.69 182.68Z" fill="#E0E0E0" />
    <path d="M179.83 187.2C179.746 187.195 179.664 187.171 179.59 187.13L167.76 180.3C167.659 180.231 167.588 180.126 167.56 180.007C167.533 179.887 167.551 179.762 167.611 179.655C167.671 179.549 167.769 179.468 167.886 179.43C168.002 179.392 168.128 179.399 168.24 179.45L180.08 186.29C180.135 186.322 180.182 186.364 180.221 186.415C180.259 186.466 180.287 186.523 180.302 186.585C180.318 186.646 180.322 186.71 180.313 186.772C180.304 186.835 180.282 186.896 180.25 186.95C180.21 187.026 180.149 187.09 180.075 187.134C180.001 187.178 179.916 187.201 179.83 187.2Z" fill="#E0E0E0" />
    <path d="M172 191.7C171.913 191.7 171.827 191.68 171.75 191.64L159.92 184.81C159.809 184.743 159.728 184.636 159.695 184.511C159.661 184.386 159.677 184.253 159.74 184.14C159.772 184.085 159.814 184.037 159.865 183.999C159.916 183.961 159.973 183.933 160.035 183.918C160.096 183.902 160.16 183.898 160.223 183.907C160.285 183.916 160.346 183.938 160.4 183.97L172.24 190.8C172.35 190.865 172.431 190.97 172.464 191.093C172.498 191.217 172.482 191.348 172.42 191.46C172.377 191.534 172.316 191.595 172.242 191.637C172.169 191.679 172.085 191.701 172 191.7Z" fill="#E0E0E0" />
    <path d="M183.22 75.99L250.3 114.71L246.35 116.99L179.28 78.26L183.22 75.99Z" fill="#9F1521" />
    <path opacity="0.8" d="M183.22 75.99L250.3 114.71L246.35 116.99L179.28 78.26L183.22 75.99Z" fill="white" />
    <path d="M179.28 78.26V155.72L246.35 194.44V116.99L179.28 78.26Z" fill="#9F1521" />
    <path opacity="0.6" d="M179.28 78.26V155.72L246.35 194.44V116.99L179.28 78.26Z" fill="white" />
    <path d="M250.3 114.71L234.5 123.83C221.308 131.45 210.354 142.408 202.739 155.603C195.124 168.798 191.117 183.765 191.12 199V230.91L195.06 233.18L254.24 199V117L250.3 114.71Z" fill="#9F1521" />
    <path opacity="0.6" d="M250.3 114.71L234.5 123.83C221.308 131.45 210.354 142.408 202.739 155.603C195.124 168.798 191.117 183.765 191.12 199V230.91L195.06 233.18L254.24 199V117L250.3 114.71Z" fill="white" />
    <path opacity="0.6" d="M197.53 166.25L254.24 199V117L250.3 114.72L234.5 123.84C217.808 133.478 204.801 148.399 197.53 166.25Z" fill="white" />
    <path d="M195.06 233.16V201.25C195.06 186.019 199.07 171.056 206.687 157.866C214.304 144.676 225.258 133.724 238.45 126.11L254.24 117V199L195.06 233.16Z" fill="#9F1521" />
    <path opacity="0.8" d="M195.06 233.16V201.25C195.06 186.019 199.07 171.056 206.687 157.866C214.304 144.676 225.258 133.724 238.45 126.11L254.24 117V199L195.06 233.16Z" fill="white" />
    <path d="M220.92 166.8L219.13 171.4V174L218.86 174.16V171.53L217.06 169.01L217.4 168.82L218.7 170.69L219 171.16L219.28 170.36L220.59 166.98L220.92 166.8Z" fill="#455A64" />
    <path d="M223.24 171.73C221.91 172.49 221.24 171.73 221.24 169.73C221.168 168.89 221.314 168.045 221.665 167.278C222.015 166.51 222.558 165.846 223.24 165.35C224.57 164.59 225.24 165.46 225.24 167.35C225.322 168.192 225.18 169.04 224.829 169.809C224.478 170.578 223.93 171.241 223.24 171.73ZM223.24 165.73C222.638 166.174 222.161 166.765 221.853 167.446C221.544 168.127 221.416 168.875 221.48 169.62C221.48 171.14 221.98 172.14 223.24 171.4C223.838 170.972 224.315 170.395 224.623 169.728C224.932 169.06 225.061 168.323 225 167.59C225 166.08 224.52 165 223.24 165.72V165.73Z" fill="#455A64" />
    <path d="M229.72 161.73V165.09C229.72 167.01 229.14 168.32 227.9 169.04C226.66 169.76 226.07 169.12 226.07 167.2V163.83L226.33 163.68V167.08C226.33 168.61 226.77 169.36 227.9 168.71C228.449 168.333 228.885 167.814 229.16 167.207C229.435 166.601 229.538 165.931 229.46 165.27V161.88L229.72 161.73Z" fill="#455A64" />
    <path d="M234.34 165.24L234.04 165.42L233.48 164.12C233.23 163.52 232.85 163.39 232.19 163.77L230.96 164.48V167.15L230.7 167.3V161.12L232.59 160.03C233.39 159.57 234 159.77 234 160.95C234.002 161.375 233.914 161.795 233.741 162.182C233.569 162.57 233.316 162.917 233 163.2C233.36 163.2 233.59 163.45 233.74 163.79L234.34 165.24ZM232.61 160.38L230.95 161.38V164.11V164.17L232.55 163.25C232.914 163.033 233.216 162.726 233.426 162.358C233.636 161.99 233.748 161.574 233.75 161.15C233.75 160.13 233.25 160 232.61 160.38Z" fill="#455A64" />
    <path d="M209.09 197.54L205.36 185.78L208.21 184.14L209.82 189.81C210.46 192.04 210.72 192.97 210.73 193.02H210.78C210.78 192.95 211.04 191.73 211.67 188.83L213.3 181.23L216.01 179.66L212.28 195.73L209.09 197.54Z" fill="#9F1521" />
    <path d="M221.64 176.1C224.84 174.26 227.15 175.91 227.15 180.16C227.15 184.41 224.84 188.73 221.64 190.57C218.44 192.41 216.14 190.77 216.14 186.57C216.14 182.37 218.45 178 221.64 176.1ZM221.64 187.41C222.586 186.775 223.357 185.912 223.882 184.9C224.406 183.888 224.667 182.76 224.64 181.62C224.64 179.11 223.38 178.25 221.64 179.24C220.691 179.879 219.918 180.748 219.393 181.765C218.869 182.783 218.61 183.916 218.64 185.06C218.66 187.54 219.91 188.41 221.64 187.41Z" fill="#9F1521" />
    <path d="M233.36 172.72V183.53L230.86 184.98V174.16L227.66 176.01V172.91L236.55 167.77V170.88L233.36 172.72Z" fill="#9F1521" />
    <path d="M237.85 167L245.45 162.61V165.71L240.35 168.65V171.04L244.11 168.87V171.65L240.35 173.82V176.36L245.53 173.36V176.47L237.85 180.9V167Z" fill="#9F1521" />
    <path d="M215.93 204.15L215.68 204.29V198.89L215.36 200.13L213.83 205.44L212.29 201.88L211.97 201.03V206.45L211.71 206.59V200.41L211.95 200.28L213.6 204.09L213.84 204.7L214.07 203.82L215.73 198.1L215.96 197.96L215.93 204.15Z" fill="#455A64" />
    <path d="M220.74 201.37L220.45 201.54L219.92 200.21L217.32 201.71L216.8 203.64L216.51 203.81L218.51 196.48L218.74 196.34L220.74 201.37ZM219.83 199.91L218.83 197.3L218.71 196.83L218.57 197.44L217.57 201.24V201.3L219.83 199.91Z" fill="#455A64" />
    <path d="M224 193.63L222.32 194.63V200.44L222.06 200.59V194.77L220.38 195.77V195.45L224 193.3V193.63Z" fill="#455A64" />
    <path d="M227.82 191.43L226.14 192.43V198.24L225.88 198.39V192.53L224.21 193.53V193.2L227.79 191.13L227.82 191.43Z" fill="#455A64" />
    <path d="M231.57 195.12L228.45 196.92V190.74L231.57 188.94V189.27L228.68 190.93V193.45V193.5L231.29 191.99V192.32L228.68 193.83V196.36V196.41L231.57 194.74V195.12Z" fill="#455A64" />
    <path d="M236.1 192.5L235.8 192.68L235.24 191.38C234.99 190.78 234.61 190.65 233.95 191.03L232.72 191.74V194.41L232.46 194.56V188.38L234.35 187.29C235.15 186.83 235.76 187.03 235.76 188.21C235.762 188.634 235.674 189.054 235.501 189.442C235.329 189.83 235.076 190.177 234.76 190.46C235.12 190.46 235.36 190.71 235.5 191.05L236.1 192.5ZM234.37 187.65L232.71 188.6V191.33V191.39L234.31 190.47C234.674 190.253 234.976 189.946 235.186 189.578C235.396 189.21 235.508 188.794 235.51 188.37C235.51 187.39 235 187.28 234.37 187.65Z" fill="#455A64" />
    <path d="M238.19 191.37C237.939 191.56 237.639 191.674 237.325 191.698C237.012 191.723 236.698 191.658 236.42 191.51L236.63 191.11C236.866 191.253 237.138 191.323 237.414 191.312C237.689 191.302 237.956 191.211 238.18 191.05C238.585 190.853 238.931 190.553 239.185 190.182C239.439 189.81 239.593 189.379 239.63 188.93C239.63 188.37 239.31 188.08 238.63 188.22L237.78 188.39C236.94 188.54 236.49 188.39 236.49 187.59C236.53 187.059 236.707 186.547 237.003 186.104C237.299 185.66 237.705 185.301 238.18 185.06C238.399 184.891 238.664 184.791 238.94 184.773C239.216 184.756 239.491 184.821 239.73 184.96L239.53 185.35C239.334 185.213 239.1 185.139 238.86 185.139C238.62 185.139 238.386 185.213 238.19 185.35C237.802 185.536 237.468 185.817 237.218 186.166C236.968 186.516 236.81 186.923 236.76 187.35C236.76 188.01 237.22 188.04 237.95 187.9L238.73 187.75C239.61 187.59 239.93 187.99 239.93 188.68C239.912 189.244 239.741 189.793 239.434 190.267C239.128 190.741 238.697 191.123 238.19 191.37Z" fill="#455A64" />
    <path d="M240.05 155.54L240.8 157.13L242.48 156.49L241.26 158.76L241.55 160.82L240.05 160.64L238.55 162.55L238.84 160.16L237.63 159.29L239.3 158L240.05 155.54Z" fill="#9F1521" />
    <path d="M211.2 172.2L210.45 174.66L208.77 175.95L209.98 176.82L209.7 179.21L211.2 177.3L212.69 177.48L212.41 175.42L213.62 173.15L211.95 173.79L211.2 172.2Z" fill="#9F1521" />
    <path d="M335.42 341.29L297.03 458.15L293.25 460.34L331.64 343.47L335.42 341.29Z" fill="#455A64" />
    <path d="M293.25 460.34L291.38 459.26L329.76 342.4L331.64 343.47L293.25 460.34Z" fill="#263238" />
    <path d="M346.22 429.75L344.35 428.68L306.52 356.6L308.4 357.68L346.22 429.75Z" fill="#263238" />
    <path d="M312.18 355.49L350.01 427.57L346.23 429.75L308.4 357.67L312.18 355.49Z" fill="#455A64" />
    <path d="M282.46 310.71L244.07 427.57L240.29 429.75L278.68 312.89L282.46 310.71Z" fill="#455A64" />
    <path d="M240.29 429.75L238.42 428.68L276.81 311.81L278.68 312.89L240.29 429.75Z" fill="#263238" />
    <path d="M293.26 399.17L291.39 398.09L253.56 326.01L255.44 327.09L293.26 399.17Z" fill="#263238" />
    <path d="M259.22 324.9L297.05 396.98L293.26 399.17L255.44 327.09L259.22 324.9Z" fill="#455A64" />
    <path d="M289.48 370.78L228.94 335.83L293.26 298.69L353.81 333.64L289.48 370.78Z" fill="#455A64" />
    <path d="M289.48 375.15V370.78L353.81 333.64V338.01L289.48 375.15Z" fill="#37474F" />
    <path d="M289.48 375.15V370.78L228.94 335.83L228.96 340.18L289.48 375.15Z" fill="#263238" />
    <path d="M289.51 366.41V313.99L237.95 284.32V336.74L289.51 366.41Z" fill="#9F1521" />
    <path d="M289.51 313.99L344.81 282.04V334.47L289.51 366.41V313.99Z" fill="#9F1521" />
    <path opacity="0.15" d="M289.51 313.99L344.81 282.04V334.47L289.51 366.41V313.99Z" fill="white" />
    <path d="M289.51 313.99L236.5 283.48L293.25 250.69L346.25 281.2L289.51 313.99Z" fill="#9F1521" />
    <path opacity="0.3" d="M289.51 313.99L236.5 283.48L293.25 250.69L346.25 281.2L289.51 313.99Z" fill="white" />
    <path d="M289.51 313.99V323.35L236.5 292.85V283.48L289.51 313.99Z" fill="#9F1521" />
    <path d="M346.25 281.2L289.51 313.99V323.35L346.25 290.57V281.2Z" fill="#9F1521" />
    <path opacity="0.15" d="M346.25 281.2L289.51 313.99V323.35L346.25 290.57V281.2Z" fill="white" />
    <path opacity="0.1" d="M238 293.68V295.74L289.56 325.41V323.35L238 293.68ZM344.86 291.4L289.56 323.4V325.46L344.86 293.46V291.4Z" fill="black" />
    <path d="M274.34 287.77L281.91 292.14L308.4 276.84L300.83 272.48L274.34 287.77Z" fill="#9F1521" />
    <path opacity="0.2" d="M306.51 277.94L308.4 276.84L300.83 272.48L300.84 274.68L306.51 277.94Z" fill="black" />
    <path opacity="0.1" d="M276.24 288.86L300.83 274.66V272.48L274.34 287.77L276.24 288.86Z" fill="black" />
    <path d="M301.3 344.33L297.73 333.05L300.46 331.48L302 336.91C302.62 339.05 302.86 339.91 302.87 339.99H302.92C302.92 339.92 303.17 338.75 303.77 335.99L305.33 328.7L307.93 327.2L304.36 342.61L301.3 344.33Z" fill="#FAFAFA" />
    <path d="M313.34 323.77C316.4 322.01 318.61 323.59 318.61 327.67C318.61 331.75 316.4 335.88 313.34 337.67C310.28 339.46 308.06 337.85 308.06 333.78C308.06 329.71 310.28 325.54 313.34 323.77ZM313.34 334.62C314.245 334.008 314.981 333.177 315.481 332.206C315.981 331.234 316.228 330.152 316.2 329.06C316.2 326.66 315 325.83 313.34 326.78C312.433 327.395 311.695 328.228 311.195 329.203C310.695 330.179 310.449 331.264 310.48 332.36C310.48 334.74 311.68 335.58 313.34 334.62Z" fill="#FAFAFA" />
    <path d="M324.58 320.52V330.89L322.17 332.28V321.91L319.12 323.68V320.68L327.63 315.76V318.76L324.58 320.52Z" fill="#FAFAFA" />
    <path d="M328.88 315.07L336.17 310.86V313.86L331.28 316.68V318.97L334.88 316.89V319.56L331.28 321.64V324.08L336.28 321.21V324.21L328.92 328.46L328.88 315.07Z" fill="#FAFAFA" />
    <path d="M307.53 273.72L305.15 278.68L281.91 292.14L277.06 289.34L290.08 261.85L307.53 273.72Z" fill="#FAFAFA" />
    <path d="M362.76 364.17C362.44 364.45 361.76 365.46 360.51 366.94C359.221 368.37 357.852 369.725 356.41 371C353.49 373.741 350.379 376.271 347.1 378.57C343.21 381.37 339.63 383.23 334.93 386.09C334.43 386.361 333.994 386.737 333.65 387.19C333.387 387.58 333.229 388.031 333.19 388.5C333.162 389.459 333.399 390.407 333.875 391.24C334.352 392.073 335.049 392.758 335.89 393.22C337.587 394.122 339.453 394.66 341.37 394.8C345.737 395.466 350.201 395.051 354.37 393.59C357.95 392.082 361.27 390.02 364.21 387.48C366.648 385.263 369.528 383.586 372.66 382.56C375.4 381.8 378.86 381.56 381.08 379.56C382.8 376 382.14 374.21 381.67 370.73C381.27 367.73 381.76 363.59 380.08 363.92L377 362.77C377 364.39 373.25 365.61 370.23 365.98C367.74 366.29 362.94 366.22 362.81 365.04C362.84 365 362.76 364.19 362.76 364.17Z" fill="#263238" />
    <path d="M421.09 360.44C423.65 360.44 422.74 370.17 423.4 376.53C424.11 383.35 425.57 388.53 426.21 394.14C426.94 400.53 426.37 403.21 424.08 408.46C422.29 412.55 413.34 418.15 409.94 412.31C406.54 406.47 405.8 399.79 406.19 393.42C406.502 388.089 406.446 382.743 406.02 377.42C405.71 372.42 403.85 362.29 407.16 361.66L407.32 363.38C408.51 365.76 419.86 367.38 421.2 362.83L421.09 360.44Z" fill="#263238" />
    <path opacity="0.3" d="M420.68 215.5C420.93 227.89 423.55 309.89 423.55 309.89C424.474 316.587 425.018 323.331 425.18 330.09C425.52 346.47 424.55 372 424.55 372C423.49 378.92 405.41 377.7 403.66 374.51C403.66 374.51 399.16 330.73 397.12 314.51C395.33 300.36 390.12 259.12 390.12 259.12L385.77 301.63C386.185 307.309 386.185 313.011 385.77 318.69C385.23 326.19 381.59 364.61 381.59 364.61C381.53 367.37 363.59 370.48 361.09 364.07C361.09 364.07 359.78 303.57 359.65 296.69C359.5 288.84 360.59 214.6 360.59 214.6L420.68 215.5Z" fill="#37474F" />
    <path d="M420.68 215.5C420.93 227.89 423.55 309.89 423.55 309.89C424.474 316.587 425.018 323.331 425.18 330.09C425.52 346.47 424.55 372 424.55 372C423.49 378.92 405.41 377.7 403.66 374.51C403.66 374.51 399.16 330.73 397.12 314.51C395.33 300.36 390.12 259.12 390.12 259.12L385.77 301.63C386.185 307.309 386.185 313.011 385.77 318.69C385.23 326.19 381.59 364.61 381.59 364.61C381.53 367.37 363.59 370.48 361.09 364.07C361.09 364.07 359.78 303.57 359.65 296.69C359.5 288.84 360.59 214.6 360.59 214.6L420.68 215.5Z" fill="#37474F" />
    <path opacity="0.05" d="M388 236.75C382.799 234.717 378.061 231.656 374.07 227.75C374.07 227.75 376.29 234.25 385.41 239.59L386.06 298.51L390.06 259.09L388 236.75Z" fill="black" />
    <path d="M322.72 151.68C320.91 149.68 317.97 146.68 317.59 146.19C314.68 142.03 314.15 138.99 311.17 134.7C309.486 132.355 308.064 129.834 306.93 127.18C306.1 125.4 304.68 127.05 304.24 127.98C303.503 129.536 303.236 131.274 303.47 132.98C303.65 134.19 303.86 135.42 303.97 136.62C304.08 137.82 303.67 137.84 302.62 137.46C300.385 136.644 298.25 135.574 296.26 134.27C294.26 132.91 292.26 131.43 290.26 130.05C288.562 128.697 286.939 127.251 285.4 125.72C284.12 124.65 282.04 123.33 280.94 125.35C280.28 126.57 281.26 127.71 281.81 128.72C282.45 129.89 282.18 130.86 282.13 132.11C281.946 133.494 282.224 134.9 282.92 136.11C283.79 137.3 284.53 138.01 284.61 139.58C284.51 140.867 284.581 142.161 284.82 143.43C285.15 144.49 286.08 145.15 286.75 146C287.971 147.488 289.395 148.798 290.98 149.89C292.876 151.257 294.883 152.465 296.98 153.5C301.98 156.23 303.84 157.04 305.52 157.94C308.475 159.636 311.21 161.692 313.66 164.06C317.53 160.51 321.2 157.11 322.72 151.68Z" fill="#F28F8F" />
    <path d="M370.73 123.49C358.73 126.38 357.26 132.74 351.16 143.41C345.06 154.08 340.16 163.73 340.16 163.73L320.26 148.6C318.369 154.895 314.35 160.339 308.89 164C308.89 164 325.15 178.1 332.35 182.71C339.08 187 345.35 192.57 352.47 183.62C359.219 174.987 365.322 165.869 370.73 156.34V123.49Z" fill="#EBEBEB" />
    <path d="M340.18 163.73C343.05 166.11 345.71 171.17 345.71 171.17C345.71 171.17 345.93 164.5 341.87 160.46L340.18 163.73Z" fill="#E0E0E0" />
    <path d="M400.11 121.92C402.42 122.47 409.77 124.45 415.74 126.55C418.753 127.704 421.368 129.704 423.27 132.31C427.6 138.64 423.69 152.69 420.51 179.16C420.75 196.26 421.24 217.51 421.24 217.51C413.38 223.24 376.71 227.13 360.17 215.05C360.17 215.05 359.62 150.89 360.72 142.55C362.81 126.55 369.06 122.32 381.97 121.55L400.11 121.92Z" fill="#9F1521" />
    <path opacity="0.2" d="M400.11 121.92C402.42 122.47 409.77 124.45 415.74 126.55C418.753 127.704 421.368 129.704 423.27 132.31C427.6 138.64 423.69 152.69 420.51 179.16C420.75 196.26 421.24 217.51 421.24 217.51C413.38 223.24 376.71 227.13 360.17 215.05C360.17 215.05 359.62 150.89 360.72 142.55C362.81 126.55 369.06 122.32 381.97 121.55L400.11 121.92Z" fill="black" />
    <path d="M396.14 82.9999C396.052 86.4088 394.956 89.7151 392.99 92.5012C391.023 95.2873 388.276 97.4282 385.093 98.6534C381.911 99.8785 378.437 100.133 375.11 99.3847C371.783 98.6363 368.753 96.9188 366.402 94.4489C364.05 91.9791 362.484 88.8678 361.9 85.5081C361.317 82.1484 361.742 78.6911 363.122 75.573C364.502 72.4548 366.776 69.8156 369.655 67.989C372.535 66.1623 375.891 65.23 379.3 65.3099C381.568 65.3631 383.803 65.8631 385.878 66.7814C387.952 67.6997 389.825 69.0182 391.39 70.6614C392.954 72.3047 394.179 74.2403 394.994 76.3575C395.809 78.4747 396.198 80.732 396.14 82.9999Z" fill="black" />
    <path d="M408.41 95.54C408.41 95.54 405.31 108.6 404.13 110.73C403.347 112.039 402.096 113.001 400.63 113.42L401.05 104.19L408.41 95.54Z" fill="black" />
    <path d="M405.36 76.6399C406.339 76.5494 407.325 76.6824 408.245 77.0288C409.165 77.3753 409.994 77.9262 410.67 78.6399C412.91 81.0499 411.45 88.3799 408.41 95.5299L403.13 96.0099L405.36 76.6399Z" fill="black" />
    <path d="M401.56 96C402.56 96.66 404.15 94.67 405.49 93.34C406.83 92.01 411.11 90.25 413.13 94.76C415.15 99.27 411 105.29 407.63 106.26C401.82 107.93 401.05 104.26 401.05 104.26L400.05 127.81C395.94 132.81 388.92 136.97 381.5 138.39C379.1 134.84 378.88 129.63 381.34 124.47L381.52 117.72C381.52 117.72 376.27 118.39 373.74 117.93C369.51 117.18 366.91 113.77 365.74 109.15C363.96 102.09 363.53 94.15 365.3 81.29C367.48 65.43 386.09 65.72 395.93 72.29C405.77 78.86 401.56 96 401.56 96Z" fill="#FFA8A7" />
    <path d="M401.51 97.7599C402.04 97.7599 404.14 94.4799 405.51 93.3199C407.37 91.6999 405.38 76.6399 405.38 76.6399C406.039 75.3348 406.29 73.8616 406.101 72.4118C405.912 70.962 405.291 69.6025 404.32 68.5099C400.63 64.2599 395.79 63.0199 390.25 63.1499C388.25 63.1999 386.25 63.3699 384.25 63.4099C381.842 63.3873 379.454 62.9719 377.18 62.1799C374.08 61.1799 371.08 59.8499 367.92 59.0999C366.92 58.8499 365.66 58.7299 364.92 59.4899C364.681 59.8111 364.514 60.1804 364.431 60.5723C364.348 60.9642 364.351 61.3694 364.44 61.7599C364.673 63.6084 365.445 65.3473 366.66 66.7599C365.574 66.5673 364.469 66.5136 363.37 66.5999C362.246 66.6817 361.194 67.1812 360.42 67.9999C359.936 68.6125 359.633 69.3474 359.543 70.1226C359.452 70.8978 359.58 71.6828 359.91 72.3899C360.601 73.7971 361.717 74.9514 363.1 75.6899C365.729 77.1814 368.817 77.648 371.77 76.9999C372.28 78.6399 373.87 79.6799 375.43 80.3699C377.906 81.4395 380.579 81.9787 383.276 81.9528C385.973 81.927 388.635 81.3367 391.09 80.2199C391.636 81.0279 392.234 81.7995 392.88 82.5299C393.606 83.2498 394.423 83.8717 395.31 84.3799C395.733 84.6284 396.175 84.8457 396.63 85.0299C397.138 85.153 397.634 85.3237 398.11 85.5399C398.67 85.9599 398.61 87.0799 398.71 87.7499C398.99 89.6499 399.23 91.5499 399.59 93.4299C399.82 94.6299 400.02 96.3699 400.86 97.3299C400.931 97.4444 401.025 97.5421 401.138 97.6163C401.25 97.6905 401.377 97.7396 401.51 97.7599Z" fill="black" />
    <path d="M405.32 77.81L411.78 74.53C411.586 74.0974 411.306 73.7085 410.958 73.3867C410.61 73.0648 410.201 72.8166 409.754 72.6569C409.308 72.4972 408.834 72.4293 408.36 72.4573C407.887 72.4854 407.424 72.6087 407 72.82C406.13 73.2738 405.469 74.0467 405.156 74.9769C404.842 75.907 404.901 76.9223 405.32 77.81Z" fill="black" />
    <path d="M381.53 117.65C381.53 117.65 390.21 115.82 393.53 114.14C395.77 113.01 397.98 109.21 398.53 107.92C398.53 107.92 398.34 112.67 396.3 115.15C393.8 118.15 381.41 120.36 381.41 120.36L381.53 117.65Z" fill="#F28F8F" />
    <path d="M384.72 93.67C384.728 93.9243 384.786 94.1746 384.891 94.4065C384.995 94.6384 385.145 94.8472 385.331 95.021C385.517 95.1948 385.735 95.3301 385.974 95.4192C386.212 95.5083 386.466 95.5493 386.72 95.54C387.229 95.4893 387.7 95.2454 388.034 94.8585C388.369 94.4716 388.543 93.9711 388.52 93.46C388.518 93.2029 388.464 92.9491 388.36 92.7136C388.257 92.4782 388.107 92.2661 387.92 92.0903C387.733 91.9144 387.511 91.7784 387.27 91.6905C387.028 91.6026 386.772 91.5646 386.515 91.5788C386.258 91.5931 386.007 91.6592 385.777 91.7732C385.547 91.8873 385.342 92.0469 385.175 92.2424C385.008 92.4379 384.883 92.6652 384.806 92.9106C384.73 93.1559 384.704 93.4143 384.73 93.67H384.72Z" fill="black" />
    <path d="M385.94 86.53L390.11 88.53C390.363 87.9625 390.388 87.3199 390.182 86.7341C389.975 86.1482 389.552 85.6637 389 85.38C388.725 85.2474 388.425 85.1719 388.12 85.1583C387.815 85.1446 387.51 85.193 387.224 85.3005C386.938 85.408 386.677 85.5723 386.456 85.7837C386.235 85.995 386.06 86.2489 385.94 86.53Z" fill="black" />
    <path d="M366.31 88.2899L370.73 86.7699C370.644 86.4784 370.5 86.2073 370.306 85.9728C370.113 85.7383 369.874 85.5453 369.604 85.4052C369.334 85.2652 369.039 85.181 368.736 85.1577C368.433 85.1345 368.128 85.1726 367.84 85.2699C367.247 85.4817 366.757 85.913 366.473 86.4748C366.188 87.0367 366.13 87.6863 366.31 88.2899Z" fill="black" />
    <path d="M368.47 93.1299C368.45 93.5021 368.54 93.872 368.728 94.1936C368.917 94.5151 369.196 94.774 369.531 94.9381C369.866 95.1022 370.241 95.1642 370.611 95.1163C370.981 95.0685 371.328 94.913 371.61 94.6692C371.892 94.4254 372.096 94.104 372.197 93.7451C372.297 93.3862 372.29 93.0056 372.176 92.6507C372.062 92.2958 371.846 91.9823 371.555 91.7492C371.264 91.5161 370.911 91.3738 370.54 91.3399C370.286 91.3208 370.031 91.3521 369.79 91.4318C369.549 91.5116 369.325 91.6383 369.133 91.8046C368.94 91.9709 368.783 92.1737 368.669 92.4011C368.555 92.6285 368.488 92.8762 368.47 93.1299Z" fill="black" />
    <path d="M378.74 92.0601L378.05 103.46L372.1 101.4L378.74 92.0601Z" fill="#F28F8F" />
    <path d="M385.18 105.4L377.71 107.4C377.822 107.899 378.034 108.369 378.332 108.784C378.63 109.199 379.009 109.55 379.446 109.815C379.883 110.08 380.369 110.255 380.875 110.327C381.381 110.4 381.896 110.371 382.39 110.24C383.395 109.957 384.249 109.292 384.77 108.388C385.291 107.483 385.438 106.411 385.18 105.4Z" fill="#B16668" />
    <path d="M385.18 107.29C384.857 107.184 384.52 107.126 384.18 107.12C383.302 107.125 382.457 107.455 381.807 108.046C381.157 108.636 380.749 109.446 380.66 110.32H380.8C381.335 110.421 381.886 110.397 382.41 110.25C383.097 110.054 383.717 109.675 384.205 109.153C384.693 108.632 385.03 107.988 385.18 107.29Z" fill="#F28F8F" />
    <path d="M402.37 119C402.37 119 396.44 140.5 394.76 153.69C393.08 166.88 393.4 204.13 394.3 227.77C394.95 244.99 397.52 276.77 397.52 276.77C397.52 276.77 401.77 277.63 412.03 275.93C420.77 274.49 425.19 271.93 427.03 270.78C427.03 270.78 425.41 222.38 424.19 205.49C423.06 189.91 423.1 181.34 423.1 181.34L426.77 145.77C426.77 145.77 426.39 126.69 419.82 124.28C412.83 121.78 402.37 119 402.37 119Z" fill="#FAFAFA" />
    <path d="M406.89 215.42L408.89 216.58L409.08 216.28C409.222 216.094 409.383 215.923 409.56 215.77C409.642 215.694 409.733 215.627 409.83 215.57L426.27 206.1L431.14 203.3L433.14 202.17L461.52 185.81C461.642 185.72 461.784 185.661 461.934 185.638C462.084 185.616 462.237 185.63 462.38 185.68L460.45 184.55C460.344 184.489 460.223 184.458 460.1 184.46C459.89 184.463 459.686 184.526 459.51 184.64L432.4 200.25L429.19 202.1L424.4 204.85L424.28 204.92L407.83 214.41C407.735 214.47 407.645 214.537 407.56 214.61C407.288 214.836 407.061 215.111 406.89 215.42Z" fill="#9F1521" />
    <path opacity="0.3" d="M406.89 215.42L408.89 216.58L409.08 216.28C409.222 216.094 409.383 215.923 409.56 215.77C409.642 215.694 409.733 215.627 409.83 215.57L426.27 206.1L431.14 203.3L433.14 202.17L461.52 185.81C461.642 185.72 461.784 185.661 461.934 185.638C462.084 185.616 462.237 185.63 462.38 185.68L460.45 184.55C460.344 184.489 460.223 184.458 460.1 184.46C459.89 184.463 459.686 184.526 459.51 184.64L432.4 200.25L429.19 202.1L424.4 204.85L424.28 204.92L407.83 214.41C407.735 214.47 407.645 214.537 407.56 214.61C407.288 214.836 407.061 215.111 406.89 215.42Z" fill="white" />
    <path d="M409 264.4H408.94L406.87 263.2C406.746 263.097 406.649 262.967 406.586 262.819C406.523 262.671 406.497 262.51 406.51 262.35V216.75C406.525 216.282 406.663 215.827 406.91 215.43L408.91 216.6C408.666 216.998 408.531 217.453 408.52 217.92V263.69C408.522 263.842 408.568 263.99 408.654 264.117C408.739 264.243 408.859 264.341 409 264.4Z" fill="#9F1521" />
    <path opacity="0.05" d="M409 264.4H408.94L406.87 263.2C406.746 263.097 406.649 262.967 406.586 262.819C406.523 262.671 406.497 262.51 406.51 262.35V216.75C406.525 216.282 406.663 215.827 406.91 215.43L408.91 216.6C408.666 216.998 408.531 217.453 408.52 217.92V263.69C408.522 263.842 408.568 263.99 408.654 264.117C408.739 264.243 408.859 264.341 409 264.4Z" fill="black" />
    <path d="M462.83 186.58V232.12C462.807 232.583 462.674 233.033 462.443 233.435C462.212 233.836 461.889 234.177 461.5 234.43L409.67 264.35C409.55 264.42 409.414 264.458 409.275 264.459C409.136 264.459 408.999 264.423 408.878 264.355C408.757 264.286 408.657 264.186 408.587 264.066C408.517 263.945 408.48 263.809 408.48 263.67V217.9C408.496 217.434 408.63 216.98 408.87 216.58C409.105 216.177 409.43 215.835 409.82 215.58L426.26 206.09L431.13 203.31L461.47 185.81C461.597 185.722 461.742 185.664 461.895 185.642C462.047 185.619 462.203 185.632 462.35 185.68H462.4C462.544 185.779 462.66 185.914 462.735 186.072C462.811 186.23 462.843 186.405 462.83 186.58Z" fill="#9F1521" />
    <path d="M452.71 216.84C452.2 213.54 451.71 210.35 451.24 207.28L437.24 212.46C437.94 215.938 438.404 219.459 438.63 223C438.677 224.533 438.161 226.031 437.18 227.21C434.58 230.4 434.72 232.83 433.12 236.28C431.86 238.98 430.38 240.05 430.85 240.61C431.46 241.33 433.31 242.2 435.45 240.67C436.698 239.646 437.798 238.455 438.72 237.13C438.65 241.082 437.975 245.001 436.72 248.75L432.47 251.21C432.47 251.21 434.87 253.9 442.23 251.29C450.54 248.35 453.51 247.12 453.53 232.72C453.64 227.414 453.366 222.106 452.71 216.84Z" fill="#F28F8F" />
    <path d="M419.85 124.35C428.19 126.35 432.55 128.77 435.17 134.07C439.75 143.33 446.01 154.77 450.09 172.59C453.91 189.27 453.27 203.05 454.45 218.23C454.45 218.23 449.45 228.69 436.6 224.07C436.6 224.07 433.55 201.55 430.27 184.46C427.41 169.57 418.8 154.59 418.8 154.59C416.451 144.596 416.814 134.157 419.85 124.35Z" fill="#EBEBEB" />
    <path d="M405.55 254.29C404.93 254.68 404.66 253.51 404.55 251.8L404.49 248.63C404.49 248.63 402.07 250.8 401.49 243.48C400.84 235.42 404.49 233.95 404.49 233.95C404.49 233.95 404.49 232.61 404.49 229.95C404.49 227.29 405.05 226.65 405.67 226.2L406.57 225.75V253.75C406.57 253.75 406.17 253.91 405.55 254.29Z" fill="#9F1521" />
    <g opacity="0.8">
        <path d="M405.55 254.29C404.93 254.68 404.66 253.51 404.55 251.8L404.49 248.63C404.49 248.63 402.07 250.8 401.49 243.48C400.84 235.42 404.49 233.95 404.49 233.95C404.49 233.95 404.49 232.61 404.49 229.95C404.49 227.29 405.05 226.65 405.67 226.2L406.57 225.75V253.75C406.57 253.75 406.17 253.91 405.55 254.29Z" fill="white" />
    </g>
    <path d="M406.43 229L408.51 228.05C408.46 228.94 408.96 231.96 409.83 231.45C410.05 231.33 410.37 231.13 410.73 230.9C410.73 227.39 410.99 224.71 411.82 224.22L413.63 223.12L413.52 248.85L411.7 250C410.92 250.47 410.76 247.92 410.7 245.31L410.25 245.58C408.72 246.52 408.49 247.94 408.49 250.34L406.16 251.96L406.43 229Z" fill="#9F1521" />
    <path opacity="0.7" d="M406.43 229L408.51 228.05C408.46 228.94 408.96 231.96 409.83 231.45C410.05 231.33 410.37 231.13 410.73 230.9C410.73 227.39 410.99 224.71 411.82 224.22L413.63 223.12L413.52 248.85L411.7 250C410.92 250.47 410.76 247.92 410.7 245.31L410.25 245.58C408.72 246.52 408.49 247.94 408.49 250.34L406.16 251.96L406.43 229Z" fill="white" />
    <path d="M400.63 115.12C401.296 115.213 401.934 115.447 402.502 115.808C403.069 116.169 403.553 116.647 403.92 117.21C404.787 118.306 405.761 119.311 406.83 120.21C406.83 120.21 407.38 131.64 406.38 134.21C405.51 136.47 399.74 147.13 399.74 147.13C399.74 147.13 400.12 157.49 400.21 160.57C400.3 163.65 394.32 176.57 393.65 182.57C393.65 182.57 393.35 158.2 394.24 151.43C395.78 139.66 397.75 124.92 400.35 120.09L400.63 115.12Z" fill="#EBEBEB" />
    <path d="M381.47 119.82C371.33 122.17 367.8 124.72 364.19 128.93C359.75 134.1 356.37 138.84 355.35 166.48C354.33 194.12 354.12 266.59 354.12 266.59C354.12 266.59 361.68 269.39 366.49 269.09C366.49 269.09 366.25 186.32 366.83 166.78C367.41 147.24 370.37 137.72 374.6 131.29C375.79 125.89 378.1 122.76 381.42 121.62L381.47 119.82Z" fill="#FAFAFA" />
    <path d="M374.6 131.29C370.37 137.72 367.41 147.29 366.83 166.78C366.76 169.11 366.7 172.37 366.65 176.29C366.65 176.29 363.16 158.59 363.78 154.83C364.4 151.07 368.47 143.28 368.47 143.28C367.94 136.82 369.47 129.47 371.92 125.05C372.54 123.94 373.52 123.05 375.87 121.42C377.622 120.134 379.514 119.05 381.51 118.19L381.36 123.95C379.78 125.14 378.33 126.28 374.6 131.29Z" fill="#EBEBEB" />
    <path d="M161.25 384.15C162.03 384.08 162.05 385.98 161.56 386.89C160.18 389.51 156.32 392.33 150.67 393.58C145.02 394.83 133.97 393.34 130.67 393.21C127.37 393.08 121.54 394.79 118.2 395.32C112.12 396.32 107.96 394.62 105.97 392.67C105.643 392.274 105.4 391.814 105.258 391.321C105.115 390.827 105.075 390.31 105.14 389.8C105.2 387.49 105.4 387.02 105.66 387.04L161.25 384.15Z" fill="#37474F" />
    <path d="M106.27 380.3C105.686 383.036 105.504 385.842 105.73 388.63C106.44 390.35 108.32 391.33 109.82 391.8C113.82 393.05 117.7 392.8 122.07 391.88C124.885 391.158 127.785 390.821 130.69 390.88C134.15 391.07 141.78 391.88 145.25 391.88C148.488 391.929 151.702 391.309 154.69 390.06C156.98 388.99 160.45 386.64 161.23 384.86C161.98 380.71 161.55 378.23 159.16 376.86C156.77 375.49 153 375.07 148 374.69C146.51 374.58 144.62 374.49 143.82 374.4C140.82 374.07 137.97 373.85 135.68 373.7C133.728 373.717 131.798 373.297 130.03 372.47C129.215 372.106 128.556 371.464 128.17 370.66C127.69 369.6 127.7 368.05 126.77 367.96C126.77 367.96 109.67 370.87 108.29 371.01C106.71 371.17 107.75 373.46 106.27 380.3Z" fill="#455A64" />
    <path d="M145.17 374.25C145.687 374.656 146.116 375.163 146.43 375.74C146.775 376.37 147.037 377.042 147.21 377.74C147.44 378.61 146.36 378.74 145.94 377.74C145.627 376.905 145.218 376.11 144.72 375.37C144.363 374.853 143.836 374.478 143.23 374.31L142.37 374.22C142.6 373.6 144.5 373.81 145.17 374.25Z" fill="#FAFAFA" />
    <path d="M137.45 373.35C137.738 373.31 138.031 373.333 138.309 373.417C138.587 373.502 138.843 373.646 139.06 373.84C139.621 374.317 140.04 374.94 140.27 375.64C140.569 376.48 140.799 377.343 140.96 378.22C141.02 378.78 139.7 378.76 139.56 378.15C139.42 377.54 139.12 376.43 138.88 375.8C138.73 375.41 138.05 373.94 137.14 373.8H136.73C136.73 373.6 136.98 373.47 137.16 373.43C137.254 373.393 137.351 373.366 137.45 373.35Z" fill="#FAFAFA" />
    <path d="M132.92 373.21C133.309 373.284 133.662 373.489 133.92 373.79C134.228 374.202 134.468 374.661 134.63 375.15C134.903 376.044 135.038 376.975 135.03 377.91C135.03 378.63 133.73 378.44 133.69 377.91C133.55 376.39 133.55 375.39 132.82 374.28C132.547 373.796 132.159 373.388 131.69 373.09C131.69 372.96 131.92 372.94 132.05 372.97C132.344 373.034 132.635 373.114 132.92 373.21Z" fill="#FAFAFA" />
    <path d="M106.37 352.59C106.37 352.59 107.85 368.32 108.22 371.95C108.34 373.11 110.54 373.58 111.67 374.07C113.081 374.596 114.396 375.353 115.56 376.31C118.43 379.16 120.56 379.83 122.33 374.83C122.388 374.588 122.496 374.362 122.648 374.165C122.801 373.969 122.993 373.807 123.212 373.691C123.432 373.574 123.673 373.506 123.921 373.49C124.169 373.475 124.418 373.512 124.65 373.6C125.614 373.929 126.632 374.072 127.65 374.02C127.8 373.92 127.71 373.69 127.65 373.54C127.204 372.985 126.884 372.34 126.712 371.649C126.539 370.959 126.518 370.239 126.65 369.54C127.14 363.1 127.41 356.65 127.78 350.2L106.37 352.59Z" fill="#FFBDA7" />
    <path d="M51.29 341.05C53.29 337.8 53.96 331.76 55.42 320.54L73.91 330.07L66 349.49C65.6736 350.333 65.4226 351.203 65.25 352.09C63 355.28 51.29 341.05 51.29 341.05Z" fill="#FFBDA7" />
    <path d="M45.15 348C45.15 347.81 45.07 346.27 45.15 346.09C45.58 344.44 46.6 343.98 47.91 343.09C49.2236 342.204 50.4286 341.167 51.5 340C51.94 339.39 52.02 339.08 52.7 338.8C53.86 338.33 55.7 338.29 58.02 339.5C61.79 341.5 62.94 343.86 62.72 346.44C62.56 348.44 62.39 351.02 64.13 352.19C64.85 352.68 65.99 349.53 65.99 349.53C67.06 351.33 65.56 353.81 64.77 357.44C64.3178 359.448 64.2837 361.528 64.67 363.55C65.05 366.74 65.49 366.72 67.18 366.95C68.64 367.14 72.78 366.86 75.29 368.62C78.76 371.04 77.83 374.26 77.83 374.26C77.38 375.49 73.61 381.43 59.83 379.21C55.83 378.57 47.43 372.29 47.56 371.7C47.6299 371.098 47.6299 370.491 47.56 369.89C47.56 368.49 47.45 367.08 47.39 365.67C47.4341 364.332 47.3537 362.993 47.15 361.67C46.8991 360.577 46.7286 359.467 46.64 358.35C46.38 355.52 46.11 352.69 45.85 349.86C45.75 349 45 348.79 45.15 348Z" fill="#455A64" />
    <path d="M43.41 347.43C42.05 348.74 42.88 352.56 44.7 357.14C45.51 359.14 47.01 362.66 46.57 366.38C46.13 370.1 46.05 371.85 47.01 373.6C48.51 376.32 56.52 379.81 61.24 380.9C58.3842 376.901 56.7199 372.176 56.44 367.27C55.96 359.06 55.34 353.77 51.59 350.14C46.84 345.53 43.41 347.43 43.41 347.43Z" fill="black" />
    <path d="M77.83 374.22C77.83 374.22 75.07 379.4 64.41 379.22C60.21 379.15 57.97 377.11 57.86 370.73C57.74 363.04 57.12 355.28 54.64 351.47C52.16 347.66 48.19 345.8 45.12 346.07C44.4009 346.289 43.7907 346.771 43.41 347.42C43.41 347.42 46.48 346.42 51.27 350.42C54.8 353.35 55.75 359.47 55.7 367.07C55.7 370.34 55.48 374.07 56.44 376.53C56.8809 377.62 57.5709 378.592 58.4547 379.368C59.3385 380.145 60.3917 380.703 61.53 381C67.32 382.62 75.25 379.94 77.26 377.49C77.5969 377.024 77.8232 376.487 77.922 375.92C78.0207 375.354 77.9893 374.772 77.83 374.22Z" fill="#37474F" />
    <path d="M65 365.51C65.4317 365.814 65.7375 366.266 65.86 366.78C65.905 367.436 65.7727 368.092 65.4772 368.68C65.1816 369.267 64.7336 369.765 64.18 370.12C63.54 370.52 62.98 370.38 64 369.03C64.6559 367.973 65.0024 366.754 65 365.51Z" fill="#FAFAFA" />
    <path d="M64.45 361.53C64.45 361.53 64.79 361.75 64.88 362.82C64.88 363.39 64.03 365.7 62.88 366.25C61.73 366.8 62.37 365.5 62.88 364.87C63.6503 363.89 64.1872 362.748 64.45 361.53Z" fill="#FAFAFA" />
    <path d="M64.83 357.14C64.83 357.14 65.2 357.24 64.83 358.71C64.2986 359.618 63.4783 360.322 62.5 360.71C61.78 360.79 61.43 360.43 62.32 359.79C63 359.32 64.7 357.85 64.83 357.14Z" fill="#FAFAFA" />
    <path d="M71.73 337.5C71.73 337.5 75.12 329.55 87.19 302.56C90.84 294.39 91.79 288.33 92.71 284.32C93.71 280.15 97.79 259.6 97.79 259.6L103.05 293.78C102.029 298.216 101.404 302.733 101.18 307.28C101.18 312.92 101.89 321.49 103.49 333.12C105.93 350.89 106.59 360.12 106.59 360.12C107.84 361.02 111.81 362.77 118.59 362.39C121.689 362.072 124.712 361.23 127.53 359.9C127.53 359.9 129.07 341.41 129.71 328.52C130.3 316.62 131.28 303.17 131.78 295.99C132.78 282.51 133.04 276.7 133.18 255.45C133.32 233.45 131.64 201.01 131.64 201.01L69.13 199.57C69.13 199.57 65.02 208.75 66.28 227.73C65.79 246.26 63.04 281.53 63.04 281.53C59.5999 289.872 57.3739 298.665 56.43 307.64C55.51 316.4 54.12 327.94 54.12 327.94C60.78 327.7 68.06 332 71.73 337.5Z" fill="#9F1521" />
    <path opacity="0.2" d="M97.84 259.78L94.39 235.29C94.39 235.29 86.28 234.66 76.54 226.55C76.54 226.55 77.82 233.81 91.64 238.77L95.25 264.26L92.63 285C92.63 285 97.78 260.25 97.84 259.78Z" fill="black" />
    <path d="M146.6 176.91L148.77 177.28L150.06 179.09C149.87 179.497 149.771 179.941 149.771 180.39C149.771 180.839 149.87 181.283 150.06 181.69C150.73 183.02 151.7 182.6 151.7 182.6L152.7 180.19L153.1 176.84L150.37 174.43L147.69 173.9L146.6 176.91Z" fill="#B16668" />
    <path d="M154.48 175.81C154.765 176.755 154.8 177.758 154.58 178.72C154.342 179.59 154.034 180.439 153.66 181.26C153.38 181.85 152.28 181.85 151.6 180.37C151.04 179.15 151.83 176.43 151.83 176.43L154.48 175.81Z" fill="#F0997A" />
    <path d="M158.57 172.45C158.87 173.99 159.79 176.88 159.96 178C160.13 179.12 158.74 179 158.74 179L155.46 174.28L158.57 172.45Z" fill="#F0997A" />
    <path d="M146.27 161C147.74 160.4 147.71 160.38 149.73 161.45C152.472 162.982 155.09 164.728 157.56 166.67C158.92 167.89 158.56 170.26 158.56 172.3C158.56 174.34 158.93 176.54 158.56 177.11C158.51 177.191 158.444 177.262 158.366 177.317C158.289 177.373 158.2 177.412 158.107 177.433C158.013 177.453 157.917 177.455 157.823 177.437C157.729 177.419 157.64 177.383 157.56 177.33L146.27 161Z" fill="#FFBDA7" />
    <path d="M159.08 179.45L160.84 185.59C160.85 185.629 160.847 185.671 160.832 185.709C160.817 185.747 160.791 185.779 160.758 185.802C160.724 185.825 160.684 185.837 160.643 185.836C160.603 185.836 160.563 185.823 160.53 185.8L155.38 182L159.08 179.45Z" fill="#FFA8A7" />
    <path d="M160.56 185.81L155.38 182L157.38 180.66L157.83 181.31L160.7 185.62L160.56 185.81Z" fill="#F28F8F" />
    <path d="M160.53 185.8C160.563 185.823 160.603 185.836 160.643 185.836C160.684 185.837 160.724 185.825 160.758 185.802C160.791 185.779 160.817 185.747 160.832 185.709C160.847 185.671 160.85 185.629 160.84 185.59L160.49 184.39C160.398 184.574 160.254 184.727 160.077 184.832C159.9 184.937 159.696 184.988 159.49 184.98H159.38L160.53 185.8Z" fill="#263238" />
    <path d="M137.58 156.34L137.92 156.82L138.32 157.41L155.38 182C156.083 182.141 156.813 182.016 157.43 181.65C157.857 181.444 158.229 181.14 158.516 180.763C158.802 180.386 158.996 179.946 159.08 179.48L142 154.9L141.22 153.78C141.71 154.54 138.05 157.09 137.58 156.34Z" fill="#455A64" />
    <path d="M137.58 156.34L137.92 156.82L138.32 157.41L155.38 182C155.808 182.082 156.249 182.07 156.672 181.965C157.095 181.86 157.49 181.663 157.83 181.39L140.07 155.5C140.14 155.45 140.14 155.41 140.07 155.39C139.11 156.14 137.84 156.76 137.58 156.34Z" fill="#37474F" />
    <path d="M138.85 158.19L139.61 159.27C139.82 159.59 140.61 159.33 141.45 158.86C142.54 158.25 143.55 157.13 143.27 156.7L142.72 155.9L142.52 155.62C142.79 156.05 141.78 157.17 140.69 157.78C139.9 158.23 139.12 158.49 138.88 158.22L138.85 158.19Z" fill="#EBEBEB" />
    <path d="M139 158.46C139.49 159.21 143.15 156.63 142.67 155.89L142 154.8C142.48 155.55 138.82 158.12 138.33 157.37L139 158.46Z" fill="#37474F" />
    <path d="M137.58 156.34L138.32 157.41C138.79 158.15 142.32 155.7 142.03 154.9L141.27 153.82C141.71 154.54 138.05 157.09 137.58 156.34Z" fill="#EBEBEB" />
    <path d="M136 154.12L137.57 156.34C137.77 156.66 138.57 156.4 139.39 155.94C140.48 155.33 141.51 154.21 141.24 153.78L139.66 151.55C139.03 150.64 137.04 151.7 136.2 152.84C136.042 153.008 135.938 153.22 135.903 153.449C135.867 153.677 135.901 153.911 136 154.12Z" fill="#F28F8F" />
    <path opacity="0.1" d="M137.52 154.279C138.027 154.115 138.488 153.835 138.868 153.462C139.248 153.089 139.536 152.633 139.71 152.129C139.744 152.008 139.749 151.88 139.723 151.756C139.696 151.632 139.641 151.517 139.56 151.419C138.83 150.759 137 151.759 136.21 152.839C136.056 153.006 135.953 153.214 135.916 153.438C135.879 153.662 135.908 153.892 136 154.099C136.24 154.439 136.81 154.529 137.52 154.279Z" fill="black" />
    <path d="M146.66 169.43C148.19 171 149.9 171.43 152.85 172.24C154.244 172.79 155.565 173.512 156.78 174.39C157.95 175.18 158.5 176.64 156.26 177.68C154.76 178.38 152.86 177.51 151.26 177.2C150.459 177.048 149.645 176.981 148.83 177C146.51 177.14 146.11 177.88 143.49 178.47C140.87 179.06 138.78 178.41 137.32 178.66C135.86 178.91 101.78 189.12 101.78 189.12L101.42 170.12C101.42 170.12 129.91 167.98 134.5 167.19C138.22 166.54 142.62 163.5 142.62 163.5L146.66 169.43Z" fill="#FFBDA7" />
    <path d="M137.37 166.33C136.432 166.731 135.453 167.03 134.45 167.22C129.86 168.01 101.37 170.15 101.37 170.15L101.73 189.15C101.73 189.15 135.81 178.95 137.27 178.69C137.602 178.656 137.938 178.656 138.27 178.69L137.37 166.33Z" fill="#F0997A" />
    <path d="M154.31 167.21C154.079 167.53 153.743 167.758 153.361 167.855C152.979 167.952 152.575 167.911 152.22 167.74C151.62 167.42 149.63 165.85 149.63 165.85L154.63 173.02C154.467 172.39 154.492 171.726 154.7 171.11C154.848 170.89 155.038 170.701 155.26 170.556C155.481 170.41 155.729 170.309 155.99 170.26C155.43 170.173 154.857 170.294 154.38 170.6C154.019 170.405 153.709 170.126 153.478 169.787C153.246 169.448 153.1 169.058 153.05 168.65C154.33 167.76 154.31 167.21 154.31 167.21Z" fill="#F0997A" />
    <path d="M68.69 121.55C64.55 129.46 64.86 138.42 66.06 149.55C67.16 159.77 67.93 166.11 68.87 178.76C70 193.17 68 202.29 68 202.29C68 202.29 76.39 213.94 94.41 218.53C126.07 226.59 132.75 216.16 132.75 216.16C132.75 216.16 132.47 205.16 132.51 196.61C132.51 188.9 132.37 179.77 132.11 172.18C131.5 154.75 131.3 140.27 129.28 134.06C127.79 130.62 126.23 129.26 122.42 127.53C119.28 126.1 113.29 123.2 108.82 121.47C100.602 118.498 92.2381 115.948 83.76 113.83C80.7646 113.467 77.7293 114.009 75.0439 115.384C72.3586 116.76 70.1458 118.907 68.69 121.55Z" fill="#37474F" />
    <path d="M111.12 113.83L108.84 121.47C103.46 121.64 91.25 119.47 88.71 117.02L91.06 108L111.12 113.83Z" fill="#FFBDA7" />
    <path d="M129.06 92.0898C129.06 92.0898 131.13 94.3398 131.79 100.96L127.79 102.96C127.4 98.2898 127 93.5598 129.06 92.0898Z" fill="#F0997A" />
    <path d="M123.13 72.8198C129.69 74.4898 132.13 81.0898 128.39 94.7398C128.85 109.61 123.53 114.48 121.39 116.01C116.81 117.47 112.51 117.01 107.04 114.5C102.87 112.5 92.37 107.21 89.04 99.4998C85.04 90.3898 85.91 77.7998 92.58 74.2898C101.88 69.2998 119.66 71.9398 123.13 72.8198Z" fill="#FFBDA7" />
    <path d="M122.63 106.3C122.707 106.335 122.775 106.386 122.83 106.45C122.83 106.45 122.83 106.56 122.91 106.61C122.971 106.727 123.037 106.84 123.11 106.95C123.269 107.186 123.458 107.401 123.67 107.59C124.067 107.927 124.512 108.203 124.99 108.41C125.008 108.418 125.023 108.43 125.033 108.446C125.044 108.462 125.05 108.481 125.05 108.5C125.062 108.521 125.069 108.545 125.069 108.57C125.069 108.595 125.062 108.619 125.05 108.64C124.95 108.72 124.77 108.64 124.65 108.64C124.512 108.603 124.378 108.553 124.25 108.49C123.972 108.358 123.71 108.193 123.47 108C123.236 107.815 123.028 107.599 122.85 107.36C122.761 107.243 122.681 107.119 122.61 106.99L122.51 106.81C122.47 106.697 122.47 106.573 122.51 106.46C122.51 106.46 122.55 106.26 122.63 106.3Z" fill="#F0997A" />
    <path d="M121.34 116C120.13 116.85 113.87 117.63 110.34 116.56L111.16 113.82C114.438 115.008 117.863 115.741 121.34 116Z" fill="#F0997A" />
    <path d="M121.73 82.6699C121.579 83.7969 121.075 84.8472 120.29 85.6699C119.185 86.809 117.71 87.5178 116.13 87.6699C116.74 89.6092 116.88 91.6656 116.54 93.6699C116.477 94.307 116.222 94.9102 115.81 95.3999C115.672 95.5816 115.486 95.7211 115.273 95.8024C115.06 95.8838 114.828 95.9037 114.604 95.8599C114.38 95.8162 114.173 95.7105 114.006 95.555C113.839 95.3994 113.719 95.2002 113.66 94.9799C113.373 93.8285 112.954 92.7143 112.41 91.6599C111.685 90.4008 110.52 89.4536 109.14 88.9999C103.91 87.4999 102.36 95.7899 103.98 98.9999C106.63 104.24 110.04 101.82 110.04 101.82C110.04 101.82 110.53 109.24 104.83 111.37C104.83 111.37 95.95 112.69 90.83 108.79C86.83 102.57 83.11 95.5799 82.34 89.9699C80.66 77.7599 84.34 70.8299 89.73 69.8299C91.22 65.5199 95.86 63.5199 100.13 62.8299C105.93 61.8299 110.9 64.5699 116.48 65.5499C119.34 66.0551 122.277 65.9046 125.07 65.1099C126.31 64.7599 127.82 64.3399 128.73 65.2199C129.076 65.5871 129.303 66.0509 129.38 66.5499C129.563 67.4308 129.535 68.3423 129.301 69.2108C129.066 70.0793 128.631 70.8806 128.03 71.5499C129.68 70.7799 132.18 71.7099 133.45 73.1299C135.26 75.1299 135.23 77.1999 133.98 79.8099C133.2 81.3599 128.75 86.1399 121.73 82.6699Z" fill="#263238" />
    <path d="M89.82 70.9999L85.27 67.1799C85.7883 66.5796 86.5231 66.2089 87.3139 66.149C88.1048 66.089 88.8871 66.3446 89.49 66.8599C89.7877 67.1072 90.033 67.4116 90.2112 67.7552C90.3895 68.0987 90.4971 68.4745 90.5279 68.8603C90.5587 69.2462 90.5119 69.6342 90.3903 70.0017C90.2687 70.3692 90.0748 70.7086 89.82 70.9999Z" fill="#263238" />
    <path d="M180.42 208.22C179.24 207.04 178.06 205.99 177.08 205.06C176.27 204.29 175.22 203.23 173.42 201.25C172.66 200.4 171.82 200.82 170.24 200.3C168.66 199.78 169.13 198.53 168.14 198.06C166.98 197.5 166.58 197.85 165.46 197.33C164.08 196.7 163.37 195.22 161.68 195.85C158.63 196.98 157.68 198.39 153.45 194.5C143.03 184.87 136.61 178.72 136.61 178.72C136.61 178.72 134.61 152.35 133.79 146.27C132.64 138.02 132.9 132.27 122.11 128.75C122.11 128.75 113.46 132.75 114.11 148.4C114.7 161.93 116.28 175.26 117.11 181.78C117.78 187.28 118.76 187.97 125.65 192.73C142.57 204.43 145.18 206.3 147.31 207.67C150.17 209.51 153.12 211.67 156.31 211.88C159.24 212.03 163.44 210.11 165.49 208.99C168.78 207.2 171.49 206.27 172.54 206.53C173.59 206.79 175.54 208.87 177.54 209.41C179.54 209.95 181 208.79 180.42 208.22Z" fill="#FFBDA7" />
    <path d="M122.44 127.53C127.44 129.8 129.44 130.99 132.06 135.26C133.79 138.08 134.06 141.14 134.81 148.62C135.44 155.16 136.31 167.62 136.31 167.62C136.31 167.62 135.19 170.62 127.92 172.99C123.721 174.43 119.154 174.377 114.99 172.84C114.99 172.84 113.56 159.79 113.07 154.39C112.4 147.07 111.85 133 122.44 127.53Z" fill="#9F1521" />
    <path d="M309.71 64.1699L338.93 81.0699C339.5 81.4099 339.93 82.2199 339.93 83.7799V119.49C339.93 119.25 339.46 120.06 338.88 120.38L334.73 122.74C334.406 122.903 334.048 122.987 333.685 122.987C333.322 122.987 332.964 122.903 332.64 122.74L303.42 105.84C303.124 105.637 302.88 105.367 302.706 105.053C302.533 104.739 302.435 104.389 302.42 104.03V68.3199C302.439 67.958 302.545 67.606 302.727 67.2929C302.91 66.9799 303.165 66.7149 303.47 66.5199L307.62 64.1599C307.946 64.001 308.304 63.9192 308.666 63.9209C309.029 63.9227 309.386 64.0079 309.71 64.1699Z" fill="#9F1521" />
    <path opacity="0.2" d="M332.68 122.73C333.005 122.89 333.363 122.974 333.725 122.974C334.088 122.974 334.445 122.89 334.77 122.73L338.92 120.37C339.5 120.05 339.97 119.24 339.97 119.48V83.7798C340.064 83.0951 339.949 82.398 339.64 81.7798L333.41 85.3598C333.61 85.6798 333.72 86.0498 333.72 85.4898V121.19C333.72 122.74 333.29 123.09 332.68 122.73Z" fill="black" />
    <path opacity="0.3" d="M302.43 68.1298C302.52 67.5998 302.95 67.4198 303.43 67.7098L332.64 84.6199C332.95 84.8088 333.202 85.0785 333.37 85.3998L339.6 81.8198C339.427 81.5129 339.18 81.2549 338.88 81.0698L309.67 64.1698C309.346 64.0071 308.988 63.9224 308.625 63.9224C308.262 63.9224 307.904 64.0071 307.58 64.1698L303.43 66.5298C303.162 66.7134 302.935 66.9503 302.763 67.2256C302.591 67.5009 302.478 67.8087 302.43 68.1298Z" fill="white" />
    <path d="M342.83 109.36C343.48 108.97 348.48 106.16 348.64 106.06C348.757 105.981 348.856 105.878 348.93 105.759C349.005 105.639 349.053 105.505 349.072 105.365C349.091 105.225 349.08 105.083 349.04 104.948C349 104.812 348.932 104.687 348.84 104.58L340 94.3999L333.72 97.9999L343 107.9C343.09 108.005 343.157 108.127 343.198 108.259C343.238 108.391 343.251 108.53 343.235 108.667C343.219 108.804 343.175 108.937 343.105 109.056C343.035 109.175 342.942 109.279 342.83 109.36Z" fill="#9F1521" />
    <path opacity="0.3" d="M342.83 109.36C343.48 108.97 348.48 106.16 348.64 106.06C348.757 105.981 348.856 105.878 348.93 105.759C349.005 105.639 349.053 105.505 349.072 105.365C349.091 105.225 349.08 105.083 349.04 104.948C349 104.812 348.932 104.687 348.84 104.58L340 94.3999L333.72 97.9999L343 107.9C343.09 108.005 343.157 108.127 343.198 108.259C343.238 108.391 343.251 108.53 343.235 108.667C343.219 108.804 343.175 108.937 343.105 109.056C343.035 109.175 342.942 109.279 342.83 109.36Z" fill="white" />
    <path d="M303.46 67.7198L332.68 84.6198C332.976 84.8203 333.221 85.0878 333.395 85.4005C333.569 85.7132 333.666 86.0623 333.68 86.4198V97.9998L343 107.9C343.127 108.027 343.214 108.189 343.252 108.365C343.29 108.541 343.276 108.724 343.213 108.892C343.15 109.061 343.04 109.208 342.896 109.315C342.752 109.423 342.58 109.487 342.4 109.5L333.71 108.86V122.13C333.71 122.79 333.25 123.06 332.71 122.73L303.49 105.83C303.194 105.627 302.95 105.357 302.776 105.043C302.603 104.729 302.505 104.378 302.49 104.02V68.3198C302.42 67.6498 302.89 67.3798 303.46 67.7198Z" fill="#9F1521" />
    <path d="M314.71 105.35H314.41C314.039 105.298 313.687 105.155 313.385 104.933C313.083 104.712 312.841 104.418 312.68 104.08L309.08 96.5C308.827 95.9616 308.798 95.3446 308.999 94.7848C309.201 94.225 309.617 93.7683 310.155 93.515C310.693 93.2617 311.31 93.2327 311.87 93.4343C312.43 93.6359 312.887 94.0516 313.14 94.59L315.27 99L325.56 87C325.958 86.5438 326.521 86.2643 327.124 86.2231C327.728 86.1818 328.324 86.3821 328.78 86.78C329.236 87.1778 329.516 87.7405 329.557 88.3444C329.598 88.9483 329.398 89.5438 329 90L316.45 104.61C316.231 104.853 315.962 105.045 315.662 105.173C315.361 105.3 315.036 105.361 314.71 105.35Z" fill="#FAFAFA" />
</svg>